<mxfile host="app.diagrams.net" agent="Mozilla/5.0 (Windows NT 10.0; Win64; x64) AppleWebKit/537.36 (KHTML, like Gecko) Chrome/136.0.0.0 Safari/537.36" version="27.0.5">
  <diagram name="Page-1" id="mT8KjQcnxmTflCokqJub">
    <mxGraphModel dx="8195" dy="6175" grid="1" gridSize="10" guides="1" tooltips="1" connect="1" arrows="1" fold="1" page="1" pageScale="1" pageWidth="1100" pageHeight="1700" math="0" shadow="0">
      <root>
        <mxCell id="0" />
        <mxCell id="1" parent="0" />
        <mxCell id="HGW-tUA6Mwg1vxqJW8UV-1" value="1.0" style="swimlane;fontStyle=0;childLayout=stackLayout;horizontal=1;startSize=20;fillColor=#ffffff;horizontalStack=0;resizeParent=1;resizeParentMax=0;resizeLast=0;collapsible=0;marginBottom=0;swimlaneFillColor=#ffffff;rounded=1;fontSize=15;fontFamily=Lucida Console;" vertex="1" parent="1">
          <mxGeometry x="427" y="-1630" width="130" height="110" as="geometry" />
        </mxCell>
        <mxCell id="HGW-tUA6Mwg1vxqJW8UV-2" value="Set Semester" style="text;html=1;align=center;verticalAlign=middle;resizable=0;points=[];autosize=1;strokeColor=none;fillColor=none;perimeterSpacing=0;spacingTop=30;spacingBottom=30;fontSize=15;fontFamily=Lucida Console;" vertex="1" parent="HGW-tUA6Mwg1vxqJW8UV-1">
          <mxGeometry y="20" width="130" height="90" as="geometry" />
        </mxCell>
        <mxCell id="HGW-tUA6Mwg1vxqJW8UV-3" style="edgeStyle=orthogonalEdgeStyle;rounded=0;orthogonalLoop=1;jettySize=auto;html=1;" edge="1" parent="1">
          <mxGeometry relative="1" as="geometry">
            <mxPoint x="372" y="-1380" as="targetPoint" />
            <mxPoint x="122" y="-1530" as="sourcePoint" />
            <Array as="points">
              <mxPoint x="122" y="-1380" />
            </Array>
          </mxGeometry>
        </mxCell>
        <mxCell id="HGW-tUA6Mwg1vxqJW8UV-4" style="edgeStyle=orthogonalEdgeStyle;rounded=0;orthogonalLoop=1;jettySize=auto;html=1;exitX=0;exitY=0.25;exitDx=0;exitDy=0;" edge="1" parent="1" source="HGW-tUA6Mwg1vxqJW8UV-6">
          <mxGeometry relative="1" as="geometry">
            <mxPoint x="390" y="-478.69284237132354" as="targetPoint" />
            <Array as="points">
              <mxPoint x="30" y="-1585" />
              <mxPoint x="30" y="-479" />
            </Array>
          </mxGeometry>
        </mxCell>
        <mxCell id="HGW-tUA6Mwg1vxqJW8UV-5" style="edgeStyle=orthogonalEdgeStyle;rounded=0;orthogonalLoop=1;jettySize=auto;html=1;exitX=0.25;exitY=0;exitDx=0;exitDy=0;" edge="1" parent="1" source="HGW-tUA6Mwg1vxqJW8UV-6">
          <mxGeometry relative="1" as="geometry">
            <mxPoint x="390" y="-458.4674703663791" as="targetPoint" />
            <Array as="points">
              <mxPoint x="88" y="-1620" />
              <mxPoint x="10" y="-1620" />
              <mxPoint x="10" y="-459" />
            </Array>
          </mxGeometry>
        </mxCell>
        <mxCell id="HGW-tUA6Mwg1vxqJW8UV-6" value="Scholarship Admin" style="html=1;dashed=0;whiteSpace=wrap;fontSize=15;fontFamily=Lucida Console;" vertex="1" parent="1">
          <mxGeometry x="57.75" y="-1600" width="121.25" height="60" as="geometry" />
        </mxCell>
        <mxCell id="HGW-tUA6Mwg1vxqJW8UV-7" value="" style="html=1;dashed=0;whiteSpace=wrap;shape=partialRectangle;right=0;" vertex="1" parent="1">
          <mxGeometry x="749" y="-1570" width="259" height="30" as="geometry" />
        </mxCell>
        <mxCell id="HGW-tUA6Mwg1vxqJW8UV-8" value="DB20&amp;nbsp; Scholarship Slot Limit" style="text;html=1;align=center;verticalAlign=middle;resizable=0;points=[];autosize=1;strokeColor=none;fillColor=none;fontSize=15;fontFamily=Lucida Console;" vertex="1" parent="1">
          <mxGeometry x="741" y="-1570" width="280" height="30" as="geometry" />
        </mxCell>
        <mxCell id="HGW-tUA6Mwg1vxqJW8UV-9" value="" style="endArrow=none;html=1;rounded=0;fontSize=12;startSize=8;endSize=8;curved=1;" edge="1" parent="1">
          <mxGeometry width="50" height="50" relative="1" as="geometry">
            <mxPoint x="798" y="-1540" as="sourcePoint" />
            <mxPoint x="798" y="-1570" as="targetPoint" />
          </mxGeometry>
        </mxCell>
        <mxCell id="HGW-tUA6Mwg1vxqJW8UV-10" value="" style="html=1;dashed=0;whiteSpace=wrap;shape=partialRectangle;right=0;" vertex="1" parent="1">
          <mxGeometry x="753.5" y="-1621" width="144.5" height="30" as="geometry" />
        </mxCell>
        <mxCell id="HGW-tUA6Mwg1vxqJW8UV-11" value="" style="endArrow=none;html=1;rounded=0;fontSize=12;startSize=8;endSize=8;curved=1;" edge="1" parent="1">
          <mxGeometry width="50" height="50" relative="1" as="geometry">
            <mxPoint x="808.75" y="-1591" as="sourcePoint" />
            <mxPoint x="808.75" y="-1621" as="targetPoint" />
          </mxGeometry>
        </mxCell>
        <mxCell id="HGW-tUA6Mwg1vxqJW8UV-12" style="edgeStyle=orthogonalEdgeStyle;rounded=0;orthogonalLoop=1;jettySize=auto;html=1;" edge="1" parent="1" source="HGW-tUA6Mwg1vxqJW8UV-14">
          <mxGeometry relative="1" as="geometry">
            <mxPoint x="514" y="-1460" as="targetPoint" />
            <Array as="points">
              <mxPoint x="1014" y="-1606" />
              <mxPoint x="1014" y="-1490" />
              <mxPoint x="514" y="-1490" />
            </Array>
          </mxGeometry>
        </mxCell>
        <mxCell id="HGW-tUA6Mwg1vxqJW8UV-13" style="edgeStyle=orthogonalEdgeStyle;rounded=0;orthogonalLoop=1;jettySize=auto;html=1;entryX=0.691;entryY=0.032;entryDx=0;entryDy=0;entryPerimeter=0;" edge="1" parent="1" source="HGW-tUA6Mwg1vxqJW8UV-14" target="HGW-tUA6Mwg1vxqJW8UV-64">
          <mxGeometry relative="1" as="geometry">
            <mxPoint x="560" y="-1110" as="targetPoint" />
            <Array as="points">
              <mxPoint x="829" y="-1650" />
              <mxPoint x="1080" y="-1650" />
              <mxPoint x="1080" y="-1000" />
              <mxPoint x="540" y="-1000" />
            </Array>
          </mxGeometry>
        </mxCell>
        <mxCell id="HGW-tUA6Mwg1vxqJW8UV-14" value="&lt;font face=&quot;Lucida Console&quot;&gt;DB1&amp;nbsp; Semester&lt;/font&gt;" style="text;html=1;align=center;verticalAlign=middle;resizable=0;points=[];autosize=1;strokeColor=none;fillColor=none;fontSize=16;" vertex="1" parent="1">
          <mxGeometry x="753.5" y="-1621" width="150" height="30" as="geometry" />
        </mxCell>
        <mxCell id="HGW-tUA6Mwg1vxqJW8UV-15" value="&lt;span&gt;Semester Details&lt;/span&gt;" style="text;html=1;align=center;verticalAlign=middle;resizable=0;points=[];autosize=1;strokeColor=none;fillColor=none;fontSize=15;fontFamily=Lucida Console;" vertex="1" parent="1">
          <mxGeometry x="207.71000000000004" y="-1591" width="170" height="30" as="geometry" />
        </mxCell>
        <mxCell id="HGW-tUA6Mwg1vxqJW8UV-16" value="&lt;span&gt;Scholarship Slot Limit&lt;/span&gt;" style="text;html=1;align=center;verticalAlign=middle;resizable=0;points=[];autosize=1;strokeColor=none;fillColor=none;fontSize=15;fontFamily=Lucida Console;" vertex="1" parent="1">
          <mxGeometry x="182.71" y="-1571" width="220" height="30" as="geometry" />
        </mxCell>
        <mxCell id="HGW-tUA6Mwg1vxqJW8UV-17" style="edgeStyle=orthogonalEdgeStyle;rounded=0;orthogonalLoop=1;jettySize=auto;html=1;fontSize=15;fontFamily=Lucida Console;" edge="1" parent="1">
          <mxGeometry relative="1" as="geometry">
            <mxPoint x="402.71" y="-1565.99" as="targetPoint" />
            <mxPoint x="182.71" y="-1565.99" as="sourcePoint" />
            <Array as="points">
              <mxPoint x="402.71" y="-1565.99" />
            </Array>
          </mxGeometry>
        </mxCell>
        <mxCell id="HGW-tUA6Mwg1vxqJW8UV-18" style="edgeStyle=orthogonalEdgeStyle;rounded=0;orthogonalLoop=1;jettySize=auto;html=1;fontSize=15;fontFamily=Lucida Console;" edge="1" parent="1">
          <mxGeometry relative="1" as="geometry">
            <mxPoint x="402.71" y="-1545.99" as="targetPoint" />
            <mxPoint x="182.71" y="-1545.99" as="sourcePoint" />
            <Array as="points">
              <mxPoint x="402.71" y="-1545.99" />
            </Array>
          </mxGeometry>
        </mxCell>
        <mxCell id="HGW-tUA6Mwg1vxqJW8UV-19" value="&lt;span&gt;Scholarship&amp;nbsp;&lt;/span&gt;&lt;div&gt;&lt;span&gt;Slot Limit&lt;/span&gt;&lt;/div&gt;" style="text;html=1;align=center;verticalAlign=middle;resizable=0;points=[];autosize=1;strokeColor=none;fillColor=none;fontSize=15;fontFamily=Lucida Console;" vertex="1" parent="1">
          <mxGeometry x="574.7500000000001" y="-1595" width="130" height="50" as="geometry" />
        </mxCell>
        <mxCell id="HGW-tUA6Mwg1vxqJW8UV-20" style="edgeStyle=orthogonalEdgeStyle;rounded=0;orthogonalLoop=1;jettySize=auto;html=1;fontSize=15;fontFamily=Lucida Console;" edge="1" parent="1">
          <mxGeometry relative="1" as="geometry">
            <mxPoint x="734" y="-1600" as="targetPoint" />
            <mxPoint x="560" y="-1599.99" as="sourcePoint" />
            <Array as="points">
              <mxPoint x="724" y="-1600" />
              <mxPoint x="724" y="-1600" />
            </Array>
          </mxGeometry>
        </mxCell>
        <mxCell id="HGW-tUA6Mwg1vxqJW8UV-21" style="edgeStyle=orthogonalEdgeStyle;rounded=0;orthogonalLoop=1;jettySize=auto;html=1;fontSize=15;fontFamily=Lucida Console;" edge="1" parent="1">
          <mxGeometry relative="1" as="geometry">
            <mxPoint x="744" y="-1550" as="targetPoint" />
            <mxPoint x="564.25" y="-1545.99" as="sourcePoint" />
            <Array as="points">
              <mxPoint x="564" y="-1550" />
              <mxPoint x="734" y="-1550" />
            </Array>
          </mxGeometry>
        </mxCell>
        <mxCell id="HGW-tUA6Mwg1vxqJW8UV-22" value="&lt;span&gt;Semester Details&lt;/span&gt;" style="text;html=1;align=center;verticalAlign=middle;resizable=0;points=[];autosize=1;strokeColor=none;fillColor=none;fontSize=15;fontFamily=Lucida Console;" vertex="1" parent="1">
          <mxGeometry x="558.25" y="-1625" width="170" height="30" as="geometry" />
        </mxCell>
        <mxCell id="HGW-tUA6Mwg1vxqJW8UV-23" style="edgeStyle=orthogonalEdgeStyle;rounded=0;orthogonalLoop=1;jettySize=auto;html=1;fontSize=15;fontFamily=Lucida Console;" edge="1" parent="1">
          <mxGeometry relative="1" as="geometry">
            <mxPoint x="804" y="-1630" as="targetPoint" />
            <mxPoint x="534" y="-1640" as="sourcePoint" />
            <Array as="points">
              <mxPoint x="534" y="-1650" />
              <mxPoint x="804" y="-1650" />
            </Array>
          </mxGeometry>
        </mxCell>
        <mxCell id="HGW-tUA6Mwg1vxqJW8UV-24" value="2.0" style="swimlane;fontStyle=0;childLayout=stackLayout;horizontal=1;startSize=20;fillColor=#ffffff;horizontalStack=0;resizeParent=1;resizeParentMax=0;resizeLast=0;collapsible=0;marginBottom=0;swimlaneFillColor=#ffffff;rounded=1;fontSize=15;fontFamily=Lucida Console;" vertex="1" parent="1">
          <mxGeometry x="405" y="-1450" width="174" height="100" as="geometry" />
        </mxCell>
        <mxCell id="HGW-tUA6Mwg1vxqJW8UV-25" value="&lt;span class=&quot;_fadeIn_m1hgl_8&quot;&gt;Create &lt;/span&gt;&lt;span class=&quot;_fadeIn_m1hgl_8&quot;&gt;Validator&amp;nbsp;&lt;/span&gt;&lt;div&gt;&lt;span class=&quot;_fadeIn_m1hgl_8&quot;&gt;Account&lt;/span&gt;&lt;/div&gt;" style="text;html=1;align=center;verticalAlign=middle;resizable=0;points=[];autosize=1;strokeColor=none;fillColor=none;perimeterSpacing=0;spacingTop=15;spacingBottom=15;fontSize=15;fontFamily=Lucida Console;" vertex="1" parent="HGW-tUA6Mwg1vxqJW8UV-24">
          <mxGeometry y="20" width="174" height="80" as="geometry" />
        </mxCell>
        <mxCell id="HGW-tUA6Mwg1vxqJW8UV-26" value="DB9" style="html=1;dashed=0;whiteSpace=wrap;shape=mxgraph.dfd.dataStoreID;align=left;spacingLeft=3;points=[[0,0],[0.5,0],[1,0],[0,0.5],[1,0.5],[0,1],[0.5,1],[1,1]];fontSize=15;fontFamily=Lucida Console;" vertex="1" parent="1">
          <mxGeometry x="784.25" y="-1430" width="100" height="30" as="geometry" />
        </mxCell>
        <mxCell id="HGW-tUA6Mwg1vxqJW8UV-27" value="Users" style="text;html=1;align=center;verticalAlign=middle;resizable=0;points=[];autosize=1;strokeColor=none;fillColor=none;fontSize=15;fontFamily=Lucida Console;" vertex="1" parent="1">
          <mxGeometry x="814.25" y="-1430" width="70" height="30" as="geometry" />
        </mxCell>
        <mxCell id="HGW-tUA6Mwg1vxqJW8UV-28" value="" style="html=1;dashed=0;whiteSpace=wrap;shape=partialRectangle;right=0;" vertex="1" parent="1">
          <mxGeometry x="784.25" y="-1380" width="201.5" height="30" as="geometry" />
        </mxCell>
        <mxCell id="HGW-tUA6Mwg1vxqJW8UV-29" value="" style="endArrow=none;html=1;rounded=0;fontSize=12;startSize=8;endSize=8;curved=1;" edge="1" parent="1">
          <mxGeometry width="50" height="50" relative="1" as="geometry">
            <mxPoint x="839.5" y="-1350" as="sourcePoint" />
            <mxPoint x="839.5" y="-1380" as="targetPoint" />
          </mxGeometry>
        </mxCell>
        <mxCell id="HGW-tUA6Mwg1vxqJW8UV-30" value="&lt;font face=&quot;Lucida Console&quot;&gt;DB11&amp;nbsp; Validator Info&lt;/font&gt;" style="text;html=1;align=center;verticalAlign=middle;resizable=0;points=[];autosize=1;strokeColor=none;fillColor=none;fontSize=16;" vertex="1" parent="1">
          <mxGeometry x="775.75" y="-1380" width="220" height="30" as="geometry" />
        </mxCell>
        <mxCell id="HGW-tUA6Mwg1vxqJW8UV-31" value="&lt;span&gt;Validator Details&lt;/span&gt;" style="text;html=1;align=center;verticalAlign=middle;resizable=0;points=[];autosize=1;strokeColor=none;fillColor=none;fontSize=15;fontFamily=Lucida Console;" vertex="1" parent="1">
          <mxGeometry x="155.50000000000003" y="-1410" width="180" height="30" as="geometry" />
        </mxCell>
        <mxCell id="HGW-tUA6Mwg1vxqJW8UV-32" value="&lt;span&gt;Semester ID&lt;/span&gt;" style="text;html=1;align=center;verticalAlign=middle;resizable=0;points=[];autosize=1;strokeColor=none;fillColor=none;fontSize=15;fontFamily=Lucida Console;" vertex="1" parent="1">
          <mxGeometry x="607" y="-1670" width="120" height="30" as="geometry" />
        </mxCell>
        <mxCell id="HGW-tUA6Mwg1vxqJW8UV-33" value="&lt;span&gt;Validator Details&lt;/span&gt;" style="text;html=1;align=center;verticalAlign=middle;resizable=0;points=[];autosize=1;strokeColor=none;fillColor=none;fontSize=15;fontFamily=Lucida Console;" vertex="1" parent="1">
          <mxGeometry x="586" y="-1396" width="180" height="30" as="geometry" />
        </mxCell>
        <mxCell id="HGW-tUA6Mwg1vxqJW8UV-34" style="edgeStyle=orthogonalEdgeStyle;rounded=0;orthogonalLoop=1;jettySize=auto;html=1;fontSize=15;fontFamily=Lucida Console;" edge="1" parent="1">
          <mxGeometry relative="1" as="geometry">
            <mxPoint x="777.25" y="-1370" as="targetPoint" />
            <mxPoint x="597.5" y="-1365.99" as="sourcePoint" />
            <Array as="points">
              <mxPoint x="597.25" y="-1370" />
              <mxPoint x="767.25" y="-1370" />
            </Array>
          </mxGeometry>
        </mxCell>
        <mxCell id="HGW-tUA6Mwg1vxqJW8UV-35" value="&lt;span&gt;Validator Acc&lt;/span&gt;&lt;div&gt;&lt;span&gt;Credentials&lt;/span&gt;&lt;/div&gt;" style="text;html=1;align=center;verticalAlign=middle;resizable=0;points=[];autosize=1;strokeColor=none;fillColor=none;fontSize=15;fontFamily=Lucida Console;" vertex="1" parent="1">
          <mxGeometry x="614.25" y="-1460" width="140" height="50" as="geometry" />
        </mxCell>
        <mxCell id="HGW-tUA6Mwg1vxqJW8UV-36" style="edgeStyle=orthogonalEdgeStyle;rounded=0;orthogonalLoop=1;jettySize=auto;html=1;fontSize=15;fontFamily=Lucida Console;" edge="1" parent="1">
          <mxGeometry relative="1" as="geometry">
            <mxPoint x="771.25" y="-1420" as="targetPoint" />
            <mxPoint x="597.25" y="-1419.99" as="sourcePoint" />
            <Array as="points">
              <mxPoint x="761.25" y="-1420" />
              <mxPoint x="761.25" y="-1420" />
            </Array>
          </mxGeometry>
        </mxCell>
        <mxCell id="HGW-tUA6Mwg1vxqJW8UV-37" value="3.0" style="swimlane;fontStyle=0;childLayout=stackLayout;horizontal=1;startSize=20;fillColor=#ffffff;horizontalStack=0;resizeParent=1;resizeParentMax=0;resizeLast=0;collapsible=0;marginBottom=0;swimlaneFillColor=#ffffff;rounded=1;fontSize=15;fontFamily=Lucida Console;" vertex="1" parent="1">
          <mxGeometry x="427" y="-1240" width="130" height="80" as="geometry" />
        </mxCell>
        <mxCell id="HGW-tUA6Mwg1vxqJW8UV-38" style="edgeStyle=orthogonalEdgeStyle;rounded=0;orthogonalLoop=1;jettySize=auto;html=1;" edge="1" parent="HGW-tUA6Mwg1vxqJW8UV-37" source="HGW-tUA6Mwg1vxqJW8UV-39">
          <mxGeometry relative="1" as="geometry">
            <mxPoint x="-127" y="120" as="targetPoint" />
            <Array as="points">
              <mxPoint x="65" y="120" />
            </Array>
          </mxGeometry>
        </mxCell>
        <mxCell id="HGW-tUA6Mwg1vxqJW8UV-39" value="Open renewal" style="text;html=1;align=center;verticalAlign=middle;resizable=0;points=[];autosize=1;strokeColor=none;fillColor=none;perimeterSpacing=0;spacingTop=15;spacingBottom=15;fontFamily=Lucida Console;fontSize=15;" vertex="1" parent="HGW-tUA6Mwg1vxqJW8UV-37">
          <mxGeometry y="20" width="130" height="60" as="geometry" />
        </mxCell>
        <mxCell id="HGW-tUA6Mwg1vxqJW8UV-40" style="edgeStyle=orthogonalEdgeStyle;rounded=0;orthogonalLoop=1;jettySize=auto;html=1;fontSize=15;fontFamily=Lucida Console;" edge="1" parent="1">
          <mxGeometry relative="1" as="geometry">
            <mxPoint x="814" y="-1440" as="targetPoint" />
            <mxPoint x="539" y="-1460" as="sourcePoint" />
            <Array as="points">
              <mxPoint x="539" y="-1470" />
              <mxPoint x="814" y="-1470" />
            </Array>
          </mxGeometry>
        </mxCell>
        <mxCell id="HGW-tUA6Mwg1vxqJW8UV-41" value="&lt;span&gt;Semester ID&lt;/span&gt;" style="text;html=1;align=center;verticalAlign=middle;resizable=0;points=[];autosize=1;strokeColor=none;fillColor=none;fontSize=15;fontFamily=Lucida Console;" vertex="1" parent="1">
          <mxGeometry x="664.25" y="-1514" width="120" height="30" as="geometry" />
        </mxCell>
        <mxCell id="HGW-tUA6Mwg1vxqJW8UV-42" style="edgeStyle=orthogonalEdgeStyle;rounded=0;orthogonalLoop=1;jettySize=auto;html=1;" edge="1" parent="1">
          <mxGeometry relative="1" as="geometry">
            <mxPoint x="520" y="-1250" as="targetPoint" />
            <mxPoint x="890" y="-1630" as="sourcePoint" />
            <Array as="points">
              <mxPoint x="1024" y="-1630" />
              <mxPoint x="1024" y="-1280" />
            </Array>
          </mxGeometry>
        </mxCell>
        <mxCell id="HGW-tUA6Mwg1vxqJW8UV-43" value="&lt;span&gt;Semester ID&lt;/span&gt;" style="text;html=1;align=center;verticalAlign=middle;resizable=0;points=[];autosize=1;strokeColor=none;fillColor=none;fontSize=15;fontFamily=Lucida Console;" vertex="1" parent="1">
          <mxGeometry x="668.75" y="-1310" width="120" height="30" as="geometry" />
        </mxCell>
        <mxCell id="HGW-tUA6Mwg1vxqJW8UV-44" value="Scholar" style="html=1;dashed=0;whiteSpace=wrap;fontFamily=Lucida Console;fontSize=15;" vertex="1" parent="1">
          <mxGeometry x="80.21000000000001" y="-1220" width="127.5" height="50" as="geometry" />
        </mxCell>
        <mxCell id="HGW-tUA6Mwg1vxqJW8UV-45" value="" style="html=1;dashed=0;whiteSpace=wrap;shape=partialRectangle;right=0;" vertex="1" parent="1">
          <mxGeometry x="776.88" y="-1160" width="283.87" height="30" as="geometry" />
        </mxCell>
        <mxCell id="HGW-tUA6Mwg1vxqJW8UV-46" value="" style="endArrow=none;html=1;rounded=0;fontSize=12;startSize=8;endSize=8;curved=1;" edge="1" parent="1">
          <mxGeometry width="50" height="50" relative="1" as="geometry">
            <mxPoint x="832.13" y="-1130" as="sourcePoint" />
            <mxPoint x="832.13" y="-1160" as="targetPoint" />
          </mxGeometry>
        </mxCell>
        <mxCell id="HGW-tUA6Mwg1vxqJW8UV-47" value="&lt;font face=&quot;Lucida Console&quot;&gt;DB21&amp;nbsp; Rejected Renewal Info&lt;/font&gt;" style="text;html=1;align=center;verticalAlign=middle;resizable=0;points=[];autosize=1;strokeColor=none;fillColor=none;fontSize=16;" vertex="1" parent="1">
          <mxGeometry x="775.75" y="-1159" width="280" height="30" as="geometry" />
        </mxCell>
        <mxCell id="HGW-tUA6Mwg1vxqJW8UV-48" value="" style="html=1;dashed=0;whiteSpace=wrap;shape=partialRectangle;right=0;" vertex="1" parent="1">
          <mxGeometry x="781.75" y="-1206" width="201.5" height="30" as="geometry" />
        </mxCell>
        <mxCell id="HGW-tUA6Mwg1vxqJW8UV-49" value="" style="endArrow=none;html=1;rounded=0;fontSize=12;startSize=8;endSize=8;curved=1;" edge="1" parent="1">
          <mxGeometry width="50" height="50" relative="1" as="geometry">
            <mxPoint x="837" y="-1176" as="sourcePoint" />
            <mxPoint x="837" y="-1206" as="targetPoint" />
          </mxGeometry>
        </mxCell>
        <mxCell id="HGW-tUA6Mwg1vxqJW8UV-50" value="&lt;font face=&quot;Lucida Console&quot;&gt;DB18&amp;nbsp; Renewal Info&lt;/font&gt;" style="text;html=1;align=center;verticalAlign=middle;resizable=0;points=[];autosize=1;strokeColor=none;fillColor=none;fontSize=16;" vertex="1" parent="1">
          <mxGeometry x="778.5" y="-1206" width="200" height="30" as="geometry" />
        </mxCell>
        <mxCell id="HGW-tUA6Mwg1vxqJW8UV-51" value="" style="html=1;dashed=0;whiteSpace=wrap;shape=partialRectangle;right=0;" vertex="1" parent="1">
          <mxGeometry x="777.1199999999999" y="-1240" width="118.38" height="30" as="geometry" />
        </mxCell>
        <mxCell id="HGW-tUA6Mwg1vxqJW8UV-52" value="" style="endArrow=none;html=1;rounded=0;fontSize=12;startSize=8;endSize=8;curved=1;" edge="1" parent="1">
          <mxGeometry width="50" height="50" relative="1" as="geometry">
            <mxPoint x="826.25" y="-1210" as="sourcePoint" />
            <mxPoint x="826.25" y="-1240" as="targetPoint" />
          </mxGeometry>
        </mxCell>
        <mxCell id="HGW-tUA6Mwg1vxqJW8UV-53" value="&lt;font face=&quot;Lucida Console&quot;&gt;DB9&amp;nbsp; Users&lt;/font&gt;" style="text;html=1;align=center;verticalAlign=middle;resizable=0;points=[];autosize=1;strokeColor=none;fillColor=none;fontSize=16;" vertex="1" parent="1">
          <mxGeometry x="778.5" y="-1240" width="120" height="30" as="geometry" />
        </mxCell>
        <mxCell id="HGW-tUA6Mwg1vxqJW8UV-54" style="edgeStyle=orthogonalEdgeStyle;rounded=0;orthogonalLoop=1;jettySize=auto;html=1;" edge="1" parent="1">
          <mxGeometry relative="1" as="geometry">
            <mxPoint x="420" y="-1210" as="targetPoint" />
            <mxPoint x="210" y="-1210" as="sourcePoint" />
            <Array as="points">
              <mxPoint x="250" y="-1210" />
              <mxPoint x="250" y="-1210" />
            </Array>
          </mxGeometry>
        </mxCell>
        <mxCell id="HGW-tUA6Mwg1vxqJW8UV-55" value="Account Credentials" style="text;html=1;align=center;verticalAlign=middle;resizable=0;points=[];autosize=1;strokeColor=none;fillColor=none;fontSize=15;fontFamily=Lucida Console;" vertex="1" parent="1">
          <mxGeometry x="214.00000000000003" y="-1236" width="200" height="30" as="geometry" />
        </mxCell>
        <mxCell id="HGW-tUA6Mwg1vxqJW8UV-56" style="edgeStyle=orthogonalEdgeStyle;rounded=0;orthogonalLoop=1;jettySize=auto;html=1;" edge="1" parent="1">
          <mxGeometry relative="1" as="geometry">
            <mxPoint x="419" y="-1180" as="targetPoint" />
            <mxPoint x="209" y="-1180" as="sourcePoint" />
            <Array as="points">
              <mxPoint x="249" y="-1180" />
              <mxPoint x="249" y="-1180" />
            </Array>
          </mxGeometry>
        </mxCell>
        <mxCell id="HGW-tUA6Mwg1vxqJW8UV-57" value="Requirements" style="text;html=1;align=center;verticalAlign=middle;resizable=0;points=[];autosize=1;strokeColor=none;fillColor=none;fontSize=15;fontFamily=Lucida Console;" vertex="1" parent="1">
          <mxGeometry x="248.00000000000003" y="-1206" width="130" height="30" as="geometry" />
        </mxCell>
        <mxCell id="HGW-tUA6Mwg1vxqJW8UV-58" value="Account Credentials" style="text;html=1;align=center;verticalAlign=middle;resizable=0;points=[];autosize=1;strokeColor=none;fillColor=none;fontSize=15;fontFamily=Lucida Console;" vertex="1" parent="1">
          <mxGeometry x="570.75" y="-1253" width="200" height="30" as="geometry" />
        </mxCell>
        <mxCell id="HGW-tUA6Mwg1vxqJW8UV-59" style="edgeStyle=orthogonalEdgeStyle;rounded=0;orthogonalLoop=1;jettySize=auto;html=1;" edge="1" parent="1">
          <mxGeometry relative="1" as="geometry">
            <mxPoint x="562.5" y="-1230" as="targetPoint" />
            <mxPoint x="772.5" y="-1230" as="sourcePoint" />
            <Array as="points">
              <mxPoint x="602.5" y="-1230" />
              <mxPoint x="602.5" y="-1230" />
            </Array>
          </mxGeometry>
        </mxCell>
        <mxCell id="HGW-tUA6Mwg1vxqJW8UV-60" style="edgeStyle=orthogonalEdgeStyle;rounded=0;orthogonalLoop=1;jettySize=auto;html=1;" edge="1" parent="1">
          <mxGeometry relative="1" as="geometry">
            <mxPoint x="777.12" y="-1190" as="targetPoint" />
            <mxPoint x="567.12" y="-1190" as="sourcePoint" />
            <Array as="points">
              <mxPoint x="607.12" y="-1190" />
              <mxPoint x="607.12" y="-1190" />
            </Array>
          </mxGeometry>
        </mxCell>
        <mxCell id="HGW-tUA6Mwg1vxqJW8UV-61" value="Requirements" style="text;html=1;align=center;verticalAlign=middle;resizable=0;points=[];autosize=1;strokeColor=none;fillColor=none;fontSize=15;fontFamily=Lucida Console;" vertex="1" parent="1">
          <mxGeometry x="617" y="-1215" width="130" height="30" as="geometry" />
        </mxCell>
        <mxCell id="HGW-tUA6Mwg1vxqJW8UV-62" style="edgeStyle=orthogonalEdgeStyle;rounded=0;orthogonalLoop=1;jettySize=auto;html=1;" edge="1" parent="1">
          <mxGeometry relative="1" as="geometry">
            <mxPoint x="768.25" y="-1150" as="targetPoint" />
            <mxPoint x="558.25" y="-1150" as="sourcePoint" />
            <Array as="points">
              <mxPoint x="598.25" y="-1150" />
              <mxPoint x="598.25" y="-1150" />
            </Array>
          </mxGeometry>
        </mxCell>
        <mxCell id="HGW-tUA6Mwg1vxqJW8UV-63" value="Rejected scholars" style="text;html=1;align=center;verticalAlign=middle;resizable=0;points=[];autosize=1;strokeColor=none;fillColor=none;fontSize=15;fontFamily=Lucida Console;" vertex="1" parent="1">
          <mxGeometry x="580.75" y="-1176" width="180" height="30" as="geometry" />
        </mxCell>
        <mxCell id="HGW-tUA6Mwg1vxqJW8UV-64" value="4.0" style="swimlane;fontStyle=0;childLayout=stackLayout;horizontal=1;startSize=20;fillColor=#ffffff;horizontalStack=0;resizeParent=1;resizeParentMax=0;resizeLast=0;collapsible=0;marginBottom=0;swimlaneFillColor=#ffffff;rounded=1;fontSize=15;fontFamily=Lucida Console;" vertex="1" parent="1">
          <mxGeometry x="392.96" y="-955" width="213" height="100" as="geometry" />
        </mxCell>
        <mxCell id="HGW-tUA6Mwg1vxqJW8UV-65" value="Enable Account&lt;div&gt;(set status to enabled)&lt;/div&gt;" style="text;html=1;align=center;verticalAlign=middle;resizable=0;points=[];autosize=1;strokeColor=none;fillColor=none;perimeterSpacing=0;spacingTop=15;spacingBottom=15;fontSize=15;fontFamily=Lucida Console;" vertex="1" parent="HGW-tUA6Mwg1vxqJW8UV-64">
          <mxGeometry y="20" width="213" height="80" as="geometry" />
        </mxCell>
        <mxCell id="HGW-tUA6Mwg1vxqJW8UV-66" style="edgeStyle=orthogonalEdgeStyle;rounded=0;orthogonalLoop=1;jettySize=auto;html=1;" edge="1" parent="1">
          <mxGeometry relative="1" as="geometry">
            <mxPoint x="380" y="-910" as="targetPoint" />
            <mxPoint x="69.75" y="-1530" as="sourcePoint" />
            <Array as="points">
              <mxPoint x="70" y="-910" />
            </Array>
          </mxGeometry>
        </mxCell>
        <mxCell id="HGW-tUA6Mwg1vxqJW8UV-67" value="&lt;span&gt;Access&lt;/span&gt;" style="text;html=1;align=center;verticalAlign=middle;resizable=0;points=[];autosize=1;strokeColor=none;fillColor=none;fontSize=15;fontFamily=Lucida Console;" vertex="1" parent="1">
          <mxGeometry x="205.50000000000003" y="-940" width="80" height="30" as="geometry" />
        </mxCell>
        <mxCell id="HGW-tUA6Mwg1vxqJW8UV-68" value="" style="html=1;dashed=0;whiteSpace=wrap;shape=partialRectangle;right=0;fontSize=15;fontFamily=Lucida Console;" vertex="1" parent="1">
          <mxGeometry x="811.83" y="-955" width="118.38" height="30" as="geometry" />
        </mxCell>
        <mxCell id="HGW-tUA6Mwg1vxqJW8UV-69" value="" style="endArrow=none;html=1;rounded=0;fontSize=15;startSize=8;endSize=8;curved=1;fontFamily=Lucida Console;" edge="1" parent="1">
          <mxGeometry width="50" height="50" relative="1" as="geometry">
            <mxPoint x="860.9600000000002" y="-925" as="sourcePoint" />
            <mxPoint x="860.9600000000002" y="-955" as="targetPoint" />
          </mxGeometry>
        </mxCell>
        <mxCell id="HGW-tUA6Mwg1vxqJW8UV-70" value="&lt;font&gt;DB9&amp;nbsp; Users&lt;/font&gt;" style="text;html=1;align=center;verticalAlign=middle;resizable=0;points=[];autosize=1;strokeColor=none;fillColor=none;fontSize=15;fontFamily=Lucida Console;" vertex="1" parent="1">
          <mxGeometry x="818.2100000000002" y="-955" width="110" height="30" as="geometry" />
        </mxCell>
        <mxCell id="HGW-tUA6Mwg1vxqJW8UV-71" value="" style="html=1;dashed=0;whiteSpace=wrap;shape=partialRectangle;right=0;fontSize=15;fontFamily=Lucida Console;" vertex="1" parent="1">
          <mxGeometry x="809.96" y="-865" width="185.12" height="30" as="geometry" />
        </mxCell>
        <mxCell id="HGW-tUA6Mwg1vxqJW8UV-72" value="" style="endArrow=none;html=1;rounded=0;fontSize=15;startSize=8;endSize=8;curved=1;fontFamily=Lucida Console;" edge="1" parent="1">
          <mxGeometry width="50" height="50" relative="1" as="geometry">
            <mxPoint x="865.21" y="-835" as="sourcePoint" />
            <mxPoint x="865.21" y="-865" as="targetPoint" />
          </mxGeometry>
        </mxCell>
        <mxCell id="HGW-tUA6Mwg1vxqJW8UV-73" value="&lt;font&gt;DB12&amp;nbsp; Scholar Info&lt;/font&gt;" style="text;html=1;align=center;verticalAlign=middle;resizable=0;points=[];autosize=1;strokeColor=none;fillColor=none;fontSize=15;fontFamily=Lucida Console;" vertex="1" parent="1">
          <mxGeometry x="812.0799999999999" y="-865" width="190" height="30" as="geometry" />
        </mxCell>
        <mxCell id="HGW-tUA6Mwg1vxqJW8UV-74" value="" style="html=1;dashed=0;whiteSpace=wrap;shape=partialRectangle;right=0;" vertex="1" parent="1">
          <mxGeometry x="810.21" y="-915" width="259" height="30" as="geometry" />
        </mxCell>
        <mxCell id="HGW-tUA6Mwg1vxqJW8UV-75" value="DB20&amp;nbsp; Scholarship Slot Limit" style="text;html=1;align=center;verticalAlign=middle;resizable=0;points=[];autosize=1;strokeColor=none;fillColor=none;fontSize=15;fontFamily=Lucida Console;" vertex="1" parent="1">
          <mxGeometry x="802.21" y="-915" width="280" height="30" as="geometry" />
        </mxCell>
        <mxCell id="HGW-tUA6Mwg1vxqJW8UV-76" value="" style="endArrow=none;html=1;rounded=0;fontSize=12;startSize=8;endSize=8;curved=1;" edge="1" parent="1">
          <mxGeometry width="50" height="50" relative="1" as="geometry">
            <mxPoint x="859.21" y="-885" as="sourcePoint" />
            <mxPoint x="859.21" y="-915" as="targetPoint" />
          </mxGeometry>
        </mxCell>
        <mxCell id="HGW-tUA6Mwg1vxqJW8UV-77" value="&lt;span&gt;Semester ID&lt;/span&gt;" style="text;html=1;align=center;verticalAlign=middle;resizable=0;points=[];autosize=1;strokeColor=none;fillColor=none;fontSize=15;fontFamily=Lucida Console;" vertex="1" parent="1">
          <mxGeometry x="656.88" y="-1030" width="120" height="30" as="geometry" />
        </mxCell>
        <mxCell id="HGW-tUA6Mwg1vxqJW8UV-78" style="edgeStyle=orthogonalEdgeStyle;rounded=0;orthogonalLoop=1;jettySize=auto;html=1;" edge="1" parent="1">
          <mxGeometry relative="1" as="geometry">
            <mxPoint x="517.46" y="-795" as="targetPoint" />
            <mxPoint x="1087.46" y="-905" as="sourcePoint" />
            <Array as="points">
              <mxPoint x="1087.46" y="-815" />
              <mxPoint x="517.46" y="-815" />
            </Array>
          </mxGeometry>
        </mxCell>
        <mxCell id="HGW-tUA6Mwg1vxqJW8UV-79" style="edgeStyle=orthogonalEdgeStyle;rounded=0;orthogonalLoop=1;jettySize=auto;html=1;" edge="1" parent="1">
          <mxGeometry relative="1" as="geometry">
            <mxPoint x="799.25" y="-840.33" as="targetPoint" />
            <mxPoint x="569" y="-850" as="sourcePoint" />
            <Array as="points">
              <mxPoint x="689.25" y="-840.33" />
              <mxPoint x="689.25" y="-840.33" />
            </Array>
          </mxGeometry>
        </mxCell>
        <mxCell id="HGW-tUA6Mwg1vxqJW8UV-80" style="edgeStyle=orthogonalEdgeStyle;rounded=0;orthogonalLoop=1;jettySize=auto;html=1;" edge="1" parent="1">
          <mxGeometry relative="1" as="geometry">
            <mxPoint x="807.46" y="-935" as="targetPoint" />
            <mxPoint x="612.46" y="-935" as="sourcePoint" />
            <Array as="points">
              <mxPoint x="612.96" y="-935" />
            </Array>
          </mxGeometry>
        </mxCell>
        <mxCell id="HGW-tUA6Mwg1vxqJW8UV-81" value="User Id" style="text;html=1;align=center;verticalAlign=middle;resizable=0;points=[];autosize=1;strokeColor=none;fillColor=none;fontSize=15;fontFamily=Lucida Console;" vertex="1" parent="1">
          <mxGeometry x="673.21" y="-960" width="90" height="30" as="geometry" />
        </mxCell>
        <mxCell id="HGW-tUA6Mwg1vxqJW8UV-82" style="edgeStyle=orthogonalEdgeStyle;rounded=0;orthogonalLoop=1;jettySize=auto;html=1;" edge="1" parent="1">
          <mxGeometry relative="1" as="geometry">
            <mxPoint x="807.46" y="-900" as="targetPoint" />
            <mxPoint x="612.46" y="-900" as="sourcePoint" />
            <Array as="points">
              <mxPoint x="612.96" y="-900" />
            </Array>
          </mxGeometry>
        </mxCell>
        <mxCell id="HGW-tUA6Mwg1vxqJW8UV-83" value="Request Slot" style="text;html=1;align=center;verticalAlign=middle;resizable=0;points=[];autosize=1;strokeColor=none;fillColor=none;fontSize=15;fontFamily=Lucida Console;" vertex="1" parent="1">
          <mxGeometry x="653.21" y="-925" width="130" height="30" as="geometry" />
        </mxCell>
        <mxCell id="HGW-tUA6Mwg1vxqJW8UV-84" value="User Id" style="text;html=1;align=center;verticalAlign=middle;resizable=0;points=[];autosize=1;strokeColor=none;fillColor=none;fontSize=15;fontFamily=Lucida Console;" vertex="1" parent="1">
          <mxGeometry x="594.75" y="-865" width="90" height="30" as="geometry" />
        </mxCell>
        <mxCell id="HGW-tUA6Mwg1vxqJW8UV-85" value="5.0" style="swimlane;fontStyle=0;childLayout=stackLayout;horizontal=1;startSize=20;fillColor=#ffffff;horizontalStack=0;resizeParent=1;resizeParentMax=0;resizeLast=0;collapsible=0;marginBottom=0;swimlaneFillColor=#ffffff;rounded=1;fontSize=15;fontFamily=Lucida Console;" vertex="1" parent="1">
          <mxGeometry x="421.46" y="-785" width="170.5" height="80" as="geometry" />
        </mxCell>
        <mxCell id="HGW-tUA6Mwg1vxqJW8UV-86" style="edgeStyle=orthogonalEdgeStyle;rounded=0;orthogonalLoop=1;jettySize=auto;html=1;" edge="1" parent="HGW-tUA6Mwg1vxqJW8UV-85" source="HGW-tUA6Mwg1vxqJW8UV-87">
          <mxGeometry relative="1" as="geometry">
            <mxPoint x="-254" y="140" as="targetPoint" />
            <Array as="points">
              <mxPoint x="85" y="120" />
              <mxPoint x="-254" y="120" />
            </Array>
          </mxGeometry>
        </mxCell>
        <mxCell id="HGW-tUA6Mwg1vxqJW8UV-87" value="Open Application" style="text;html=1;align=center;verticalAlign=middle;resizable=0;points=[];autosize=1;strokeColor=none;fillColor=none;perimeterSpacing=0;spacingTop=15;spacingBottom=15;fontFamily=Lucida Console;fontSize=15;" vertex="1" parent="HGW-tUA6Mwg1vxqJW8UV-85">
          <mxGeometry y="20" width="170.5" height="60" as="geometry" />
        </mxCell>
        <mxCell id="HGW-tUA6Mwg1vxqJW8UV-88" value="Available Slot" style="text;html=1;align=center;verticalAlign=middle;resizable=0;points=[];autosize=1;strokeColor=none;fillColor=none;fontSize=15;fontFamily=Lucida Console;" vertex="1" parent="1">
          <mxGeometry x="646.21" y="-845" width="150" height="30" as="geometry" />
        </mxCell>
        <mxCell id="HGW-tUA6Mwg1vxqJW8UV-89" style="edgeStyle=orthogonalEdgeStyle;rounded=0;orthogonalLoop=1;jettySize=auto;html=1;exitX=0;exitY=0.75;exitDx=0;exitDy=0;" edge="1" parent="1" source="HGW-tUA6Mwg1vxqJW8UV-6">
          <mxGeometry relative="1" as="geometry">
            <mxPoint x="400" y="-760" as="targetPoint" />
            <mxPoint x="94.63" y="-1366" as="sourcePoint" />
            <Array as="points">
              <mxPoint x="50" y="-1555" />
              <mxPoint x="50" y="-760" />
            </Array>
          </mxGeometry>
        </mxCell>
        <mxCell id="HGW-tUA6Mwg1vxqJW8UV-90" value="&lt;span&gt;Application Date Details&lt;/span&gt;" style="text;html=1;align=center;verticalAlign=middle;resizable=0;points=[];autosize=1;strokeColor=none;fillColor=none;fontSize=15;fontFamily=Lucida Console;" vertex="1" parent="1">
          <mxGeometry x="125.50000000000004" y="-790" width="240" height="30" as="geometry" />
        </mxCell>
        <mxCell id="HGW-tUA6Mwg1vxqJW8UV-91" value="" style="html=1;dashed=0;whiteSpace=wrap;shape=partialRectangle;right=0;" vertex="1" parent="1">
          <mxGeometry x="83.46" y="-1146" width="201.5" height="30" as="geometry" />
        </mxCell>
        <mxCell id="HGW-tUA6Mwg1vxqJW8UV-92" value="" style="endArrow=none;html=1;rounded=0;fontSize=12;startSize=8;endSize=8;curved=1;" edge="1" parent="1">
          <mxGeometry width="50" height="50" relative="1" as="geometry">
            <mxPoint x="138.70999999999998" y="-1116" as="sourcePoint" />
            <mxPoint x="138.70999999999998" y="-1146" as="targetPoint" />
          </mxGeometry>
        </mxCell>
        <mxCell id="HGW-tUA6Mwg1vxqJW8UV-93" value="&lt;font face=&quot;Lucida Console&quot;&gt;DB25&amp;nbsp; Renewal Date&lt;/font&gt;" style="text;html=1;align=center;verticalAlign=middle;resizable=0;points=[];autosize=1;strokeColor=none;fillColor=none;fontSize=16;" vertex="1" parent="1">
          <mxGeometry x="80.21" y="-1146" width="200" height="30" as="geometry" />
        </mxCell>
        <mxCell id="HGW-tUA6Mwg1vxqJW8UV-94" style="edgeStyle=orthogonalEdgeStyle;rounded=0;orthogonalLoop=1;jettySize=auto;html=1;" edge="1" parent="1">
          <mxGeometry relative="1" as="geometry">
            <mxPoint x="450" y="-1250" as="targetPoint" />
            <mxPoint x="90.5" y="-1530" as="sourcePoint" />
            <Array as="points">
              <mxPoint x="90" y="-1280" />
              <mxPoint x="450" y="-1280" />
            </Array>
          </mxGeometry>
        </mxCell>
        <mxCell id="HGW-tUA6Mwg1vxqJW8UV-95" value="&lt;span&gt;Renewal Date Details&lt;/span&gt;" style="text;html=1;align=center;verticalAlign=middle;resizable=0;points=[];autosize=1;strokeColor=none;fillColor=none;fontSize=15;fontFamily=Lucida Console;" vertex="1" parent="1">
          <mxGeometry x="170.50000000000003" y="-1310" width="200" height="30" as="geometry" />
        </mxCell>
        <mxCell id="HGW-tUA6Mwg1vxqJW8UV-96" value="&lt;span&gt;Renewal Date Details&lt;/span&gt;" style="text;html=1;align=center;verticalAlign=middle;resizable=0;points=[];autosize=1;strokeColor=none;fillColor=none;fontSize=15;fontFamily=Lucida Console;" vertex="1" parent="1">
          <mxGeometry x="293.5" y="-1146" width="200" height="30" as="geometry" />
        </mxCell>
        <mxCell id="HGW-tUA6Mwg1vxqJW8UV-97" value="&lt;span&gt;Application Date Details&lt;/span&gt;" style="text;html=1;align=center;verticalAlign=middle;resizable=0;points=[];autosize=1;strokeColor=none;fillColor=none;fontSize=15;fontFamily=Lucida Console;" vertex="1" parent="1">
          <mxGeometry x="163.21000000000004" y="-695" width="240" height="30" as="geometry" />
        </mxCell>
        <mxCell id="HGW-tUA6Mwg1vxqJW8UV-98" value="" style="html=1;dashed=0;whiteSpace=wrap;shape=partialRectangle;right=0;" vertex="1" parent="1">
          <mxGeometry x="85.84000000000012" y="-635" width="234.37" height="30" as="geometry" />
        </mxCell>
        <mxCell id="HGW-tUA6Mwg1vxqJW8UV-99" value="" style="endArrow=none;html=1;rounded=0;fontSize=12;startSize=8;endSize=8;curved=1;" edge="1" parent="1">
          <mxGeometry width="50" height="50" relative="1" as="geometry">
            <mxPoint x="141.09000000000012" y="-605" as="sourcePoint" />
            <mxPoint x="141.09000000000012" y="-635" as="targetPoint" />
          </mxGeometry>
        </mxCell>
        <mxCell id="HGW-tUA6Mwg1vxqJW8UV-100" value="&lt;font face=&quot;Lucida Console&quot;&gt;DB26&amp;nbsp; Application Date&lt;/font&gt;" style="text;html=1;align=center;verticalAlign=middle;resizable=0;points=[];autosize=1;strokeColor=none;fillColor=none;fontSize=16;" vertex="1" parent="1">
          <mxGeometry x="80.21000000000001" y="-635" width="240" height="30" as="geometry" />
        </mxCell>
        <mxCell id="HGW-tUA6Mwg1vxqJW8UV-101" value="" style="html=1;dashed=0;whiteSpace=wrap;shape=partialRectangle;right=0;" vertex="1" parent="1">
          <mxGeometry x="815.7" y="-775" width="226.25" height="30" as="geometry" />
        </mxCell>
        <mxCell id="HGW-tUA6Mwg1vxqJW8UV-102" value="" style="endArrow=none;html=1;rounded=0;fontSize=12;startSize=8;endSize=8;curved=1;" edge="1" parent="1">
          <mxGeometry width="50" height="50" relative="1" as="geometry">
            <mxPoint x="870.95" y="-745" as="sourcePoint" />
            <mxPoint x="870.95" y="-775" as="targetPoint" />
          </mxGeometry>
        </mxCell>
        <mxCell id="HGW-tUA6Mwg1vxqJW8UV-103" value="&lt;font face=&quot;Lucida Console&quot;&gt;DB10&amp;nbsp; Application Info&lt;/font&gt;" style="text;html=1;align=center;verticalAlign=middle;resizable=0;points=[];autosize=1;strokeColor=none;fillColor=none;fontSize=16;" vertex="1" parent="1">
          <mxGeometry x="806.2700000000002" y="-775" width="240" height="30" as="geometry" />
        </mxCell>
        <mxCell id="HGW-tUA6Mwg1vxqJW8UV-104" value="" style="html=1;dashed=0;whiteSpace=wrap;shape=partialRectangle;right=0;" vertex="1" parent="1">
          <mxGeometry x="768.6900000000002" y="-695" width="306.62" height="30" as="geometry" />
        </mxCell>
        <mxCell id="HGW-tUA6Mwg1vxqJW8UV-105" value="" style="endArrow=none;html=1;rounded=0;fontSize=12;startSize=8;endSize=8;curved=1;" edge="1" parent="1">
          <mxGeometry width="50" height="50" relative="1" as="geometry">
            <mxPoint x="823.9400000000002" y="-665" as="sourcePoint" />
            <mxPoint x="823.9400000000002" y="-695" as="targetPoint" />
          </mxGeometry>
        </mxCell>
        <mxCell id="HGW-tUA6Mwg1vxqJW8UV-106" value="&lt;font face=&quot;Lucida Console&quot;&gt;DB22&amp;nbsp; Rejected Application Info&lt;/font&gt;" style="text;html=1;align=center;verticalAlign=middle;resizable=0;points=[];autosize=1;strokeColor=none;fillColor=none;fontSize=16;" vertex="1" parent="1">
          <mxGeometry x="761.9999999999999" y="-694.5" width="320" height="30" as="geometry" />
        </mxCell>
        <mxCell id="HGW-tUA6Mwg1vxqJW8UV-107" style="edgeStyle=orthogonalEdgeStyle;rounded=0;orthogonalLoop=1;jettySize=auto;html=1;" edge="1" parent="1">
          <mxGeometry relative="1" as="geometry">
            <mxPoint x="806.2700000000001" y="-760.29" as="targetPoint" />
            <mxPoint x="596.2700000000001" y="-760.29" as="sourcePoint" />
            <Array as="points">
              <mxPoint x="636.2700000000001" y="-760.29" />
              <mxPoint x="636.2700000000001" y="-760.29" />
            </Array>
          </mxGeometry>
        </mxCell>
        <mxCell id="HGW-tUA6Mwg1vxqJW8UV-108" value="Requirements" style="text;html=1;align=center;verticalAlign=middle;resizable=0;points=[];autosize=1;strokeColor=none;fillColor=none;fontSize=15;fontFamily=Lucida Console;" vertex="1" parent="1">
          <mxGeometry x="633.46" y="-785" width="130" height="30" as="geometry" />
        </mxCell>
        <mxCell id="HGW-tUA6Mwg1vxqJW8UV-109" value="Rejected applicant" style="text;html=1;align=center;verticalAlign=middle;resizable=0;points=[];autosize=1;strokeColor=none;fillColor=none;fontSize=15;fontFamily=Lucida Console;" vertex="1" parent="1">
          <mxGeometry x="614.46" y="-745" width="190" height="30" as="geometry" />
        </mxCell>
        <mxCell id="HGW-tUA6Mwg1vxqJW8UV-110" style="edgeStyle=orthogonalEdgeStyle;rounded=0;orthogonalLoop=1;jettySize=auto;html=1;entryX=0.5;entryY=0;entryDx=0;entryDy=0;" edge="1" parent="1" source="HGW-tUA6Mwg1vxqJW8UV-87" target="HGW-tUA6Mwg1vxqJW8UV-104">
          <mxGeometry relative="1" as="geometry">
            <Array as="points">
              <mxPoint x="922" y="-715" />
            </Array>
          </mxGeometry>
        </mxCell>
        <mxCell id="HGW-tUA6Mwg1vxqJW8UV-111" style="edgeStyle=orthogonalEdgeStyle;rounded=0;orthogonalLoop=1;jettySize=auto;html=1;exitX=0.5;exitY=1;exitDx=0;exitDy=0;" edge="1" parent="1" source="HGW-tUA6Mwg1vxqJW8UV-112">
          <mxGeometry relative="1" as="geometry">
            <mxPoint x="510" y="-1150" as="targetPoint" />
          </mxGeometry>
        </mxCell>
        <mxCell id="HGW-tUA6Mwg1vxqJW8UV-112" value="Validator" style="html=1;dashed=0;whiteSpace=wrap;fontFamily=Lucida Console;fontSize=15;" vertex="1" parent="1">
          <mxGeometry x="749" y="-1116" width="127.5" height="50" as="geometry" />
        </mxCell>
        <mxCell id="HGW-tUA6Mwg1vxqJW8UV-113" style="edgeStyle=orthogonalEdgeStyle;rounded=0;orthogonalLoop=1;jettySize=auto;html=1;" edge="1" parent="1">
          <mxGeometry relative="1" as="geometry">
            <mxPoint x="744.75" y="-1090" as="targetPoint" />
            <mxPoint x="520" y="-1150" as="sourcePoint" />
            <Array as="points">
              <mxPoint x="520" y="-1090" />
            </Array>
          </mxGeometry>
        </mxCell>
        <mxCell id="HGW-tUA6Mwg1vxqJW8UV-114" value="Requirements" style="text;html=1;align=center;verticalAlign=middle;resizable=0;points=[];autosize=1;strokeColor=none;fillColor=none;fontSize=15;fontFamily=Lucida Console;" vertex="1" parent="1">
          <mxGeometry x="584" y="-1116" width="130" height="30" as="geometry" />
        </mxCell>
        <mxCell id="HGW-tUA6Mwg1vxqJW8UV-115" value="Approval/Rejection" style="text;html=1;align=center;verticalAlign=middle;resizable=0;points=[];autosize=1;strokeColor=none;fillColor=none;fontSize=15;fontFamily=Lucida Console;" vertex="1" parent="1">
          <mxGeometry x="569" y="-1070" width="190" height="30" as="geometry" />
        </mxCell>
        <mxCell id="HGW-tUA6Mwg1vxqJW8UV-116" style="edgeStyle=orthogonalEdgeStyle;rounded=0;orthogonalLoop=1;jettySize=auto;html=1;exitX=0.5;exitY=1;exitDx=0;exitDy=0;" edge="1" parent="1" source="HGW-tUA6Mwg1vxqJW8UV-117">
          <mxGeometry relative="1" as="geometry">
            <mxPoint x="520" y="-700" as="targetPoint" />
            <Array as="points">
              <mxPoint x="832" y="-580" />
              <mxPoint x="520" y="-580" />
            </Array>
          </mxGeometry>
        </mxCell>
        <mxCell id="HGW-tUA6Mwg1vxqJW8UV-117" value="Validator" style="html=1;dashed=0;whiteSpace=wrap;fontFamily=Lucida Console;fontSize=15;" vertex="1" parent="1">
          <mxGeometry x="768" y="-656" width="127.5" height="50" as="geometry" />
        </mxCell>
        <mxCell id="HGW-tUA6Mwg1vxqJW8UV-118" style="edgeStyle=orthogonalEdgeStyle;rounded=0;orthogonalLoop=1;jettySize=auto;html=1;" edge="1" parent="1">
          <mxGeometry relative="1" as="geometry">
            <mxPoint x="763.75" y="-630" as="targetPoint" />
            <mxPoint x="540" y="-700" as="sourcePoint" />
            <Array as="points">
              <mxPoint x="539" y="-630" />
            </Array>
          </mxGeometry>
        </mxCell>
        <mxCell id="HGW-tUA6Mwg1vxqJW8UV-119" value="Applicant Id" style="text;html=1;align=center;verticalAlign=middle;resizable=0;points=[];autosize=1;strokeColor=none;fillColor=none;fontSize=15;fontFamily=Lucida Console;" vertex="1" parent="1">
          <mxGeometry x="603" y="-656" width="130" height="30" as="geometry" />
        </mxCell>
        <mxCell id="HGW-tUA6Mwg1vxqJW8UV-120" value="Approval/Rejection" style="text;html=1;align=center;verticalAlign=middle;resizable=0;points=[];autosize=1;strokeColor=none;fillColor=none;fontSize=15;fontFamily=Lucida Console;" vertex="1" parent="1">
          <mxGeometry x="588" y="-610" width="190" height="30" as="geometry" />
        </mxCell>
        <mxCell id="HGW-tUA6Mwg1vxqJW8UV-121" value="6.0" style="swimlane;fontStyle=0;childLayout=stackLayout;horizontal=1;startSize=20;fillColor=#ffffff;horizontalStack=0;resizeParent=1;resizeParentMax=0;resizeLast=0;collapsible=0;marginBottom=0;swimlaneFillColor=#ffffff;rounded=1;fontSize=15;fontFamily=Lucida Console;" vertex="1" parent="1">
          <mxGeometry x="398.5" y="-530" width="213" height="80" as="geometry" />
        </mxCell>
        <mxCell id="HGW-tUA6Mwg1vxqJW8UV-122" value="&lt;div&gt;Create Account&lt;/div&gt;" style="text;html=1;align=center;verticalAlign=middle;resizable=0;points=[];autosize=1;strokeColor=none;fillColor=none;perimeterSpacing=0;spacingTop=15;spacingBottom=15;fontSize=15;fontFamily=Lucida Console;" vertex="1" parent="HGW-tUA6Mwg1vxqJW8UV-121">
          <mxGeometry y="20" width="213" height="60" as="geometry" />
        </mxCell>
        <mxCell id="HGW-tUA6Mwg1vxqJW8UV-123" value="" style="html=1;dashed=0;whiteSpace=wrap;shape=partialRectangle;right=0;" vertex="1" parent="1">
          <mxGeometry x="72.75000000000011" y="-310" width="226.25" height="30" as="geometry" />
        </mxCell>
        <mxCell id="HGW-tUA6Mwg1vxqJW8UV-124" value="" style="endArrow=none;html=1;rounded=0;fontSize=12;startSize=8;endSize=8;curved=1;" edge="1" parent="1">
          <mxGeometry width="50" height="50" relative="1" as="geometry">
            <mxPoint x="128.0000000000001" y="-280" as="sourcePoint" />
            <mxPoint x="128.0000000000001" y="-310" as="targetPoint" />
          </mxGeometry>
        </mxCell>
        <mxCell id="HGW-tUA6Mwg1vxqJW8UV-125" value="&lt;font face=&quot;Lucida Console&quot;&gt;DB10&amp;nbsp; Application Info&lt;/font&gt;" style="text;html=1;align=center;verticalAlign=middle;resizable=0;points=[];autosize=1;strokeColor=none;fillColor=none;fontSize=16;" vertex="1" parent="1">
          <mxGeometry x="72.75000000000011" y="-310" width="240" height="30" as="geometry" />
        </mxCell>
        <mxCell id="HGW-tUA6Mwg1vxqJW8UV-126" value="" style="html=1;dashed=0;whiteSpace=wrap;shape=partialRectangle;right=0;" vertex="1" parent="1">
          <mxGeometry x="104.5000000000002" y="-420" width="144.5" height="30" as="geometry" />
        </mxCell>
        <mxCell id="HGW-tUA6Mwg1vxqJW8UV-127" value="" style="endArrow=none;html=1;rounded=0;fontSize=12;startSize=8;endSize=8;curved=1;" edge="1" parent="1">
          <mxGeometry width="50" height="50" relative="1" as="geometry">
            <mxPoint x="159.7500000000002" y="-390" as="sourcePoint" />
            <mxPoint x="159.7500000000002" y="-420" as="targetPoint" />
          </mxGeometry>
        </mxCell>
        <mxCell id="HGW-tUA6Mwg1vxqJW8UV-128" style="edgeStyle=orthogonalEdgeStyle;rounded=0;orthogonalLoop=1;jettySize=auto;html=1;" edge="1" parent="1" source="HGW-tUA6Mwg1vxqJW8UV-129">
          <mxGeometry relative="1" as="geometry">
            <mxPoint x="440" y="-440" as="targetPoint" />
          </mxGeometry>
        </mxCell>
        <mxCell id="HGW-tUA6Mwg1vxqJW8UV-129" value="&lt;font face=&quot;Lucida Console&quot;&gt;DB1&amp;nbsp; Semester&lt;/font&gt;" style="text;html=1;align=center;verticalAlign=middle;resizable=0;points=[];autosize=1;strokeColor=none;fillColor=none;fontSize=16;" vertex="1" parent="1">
          <mxGeometry x="104.5000000000002" y="-420" width="150" height="30" as="geometry" />
        </mxCell>
        <mxCell id="HGW-tUA6Mwg1vxqJW8UV-130" value="" style="html=1;dashed=0;whiteSpace=wrap;shape=partialRectangle;right=0;fontSize=15;fontFamily=Lucida Console;" vertex="1" parent="1">
          <mxGeometry x="681.5" y="-266" width="118.38" height="30" as="geometry" />
        </mxCell>
        <mxCell id="HGW-tUA6Mwg1vxqJW8UV-131" value="" style="endArrow=none;html=1;rounded=0;fontSize=15;startSize=8;endSize=8;curved=1;fontFamily=Lucida Console;" edge="1" parent="1">
          <mxGeometry width="50" height="50" relative="1" as="geometry">
            <mxPoint x="730.6300000000001" y="-236" as="sourcePoint" />
            <mxPoint x="730.6300000000001" y="-266" as="targetPoint" />
          </mxGeometry>
        </mxCell>
        <mxCell id="HGW-tUA6Mwg1vxqJW8UV-132" value="&lt;font&gt;DB9&amp;nbsp; Users&lt;/font&gt;" style="text;html=1;align=center;verticalAlign=middle;resizable=0;points=[];autosize=1;strokeColor=none;fillColor=none;fontSize=15;fontFamily=Lucida Console;" vertex="1" parent="1">
          <mxGeometry x="687.8800000000001" y="-266" width="110" height="30" as="geometry" />
        </mxCell>
        <mxCell id="HGW-tUA6Mwg1vxqJW8UV-133" value="" style="html=1;dashed=0;whiteSpace=wrap;shape=partialRectangle;right=0;" vertex="1" parent="1">
          <mxGeometry x="24" y="-370" width="259" height="30" as="geometry" />
        </mxCell>
        <mxCell id="HGW-tUA6Mwg1vxqJW8UV-134" value="DB20&amp;nbsp; Scholarship Slot Limit" style="text;html=1;align=center;verticalAlign=middle;resizable=0;points=[];autosize=1;strokeColor=none;fillColor=none;fontSize=15;fontFamily=Lucida Console;" vertex="1" parent="1">
          <mxGeometry x="16" y="-370" width="280" height="30" as="geometry" />
        </mxCell>
        <mxCell id="HGW-tUA6Mwg1vxqJW8UV-135" value="" style="endArrow=none;html=1;rounded=0;fontSize=12;startSize=8;endSize=8;curved=1;" edge="1" parent="1">
          <mxGeometry width="50" height="50" relative="1" as="geometry">
            <mxPoint x="73" y="-340" as="sourcePoint" />
            <mxPoint x="73" y="-370" as="targetPoint" />
          </mxGeometry>
        </mxCell>
        <mxCell id="HGW-tUA6Mwg1vxqJW8UV-136" value="" style="html=1;dashed=0;whiteSpace=wrap;shape=partialRectangle;right=0;fontSize=15;fontFamily=Lucida Console;" vertex="1" parent="1">
          <mxGeometry x="808.7100000000002" y="-511" width="185.12" height="30" as="geometry" />
        </mxCell>
        <mxCell id="HGW-tUA6Mwg1vxqJW8UV-137" value="" style="endArrow=none;html=1;rounded=0;fontSize=15;startSize=8;endSize=8;curved=1;fontFamily=Lucida Console;" edge="1" parent="1">
          <mxGeometry width="50" height="50" relative="1" as="geometry">
            <mxPoint x="863.5200000000001" y="-482" as="sourcePoint" />
            <mxPoint x="863.5200000000001" y="-512" as="targetPoint" />
          </mxGeometry>
        </mxCell>
        <mxCell id="HGW-tUA6Mwg1vxqJW8UV-138" value="&lt;font&gt;DB12&amp;nbsp; Scholar Info&lt;/font&gt;" style="text;html=1;align=center;verticalAlign=middle;resizable=0;points=[];autosize=1;strokeColor=none;fillColor=none;fontSize=15;fontFamily=Lucida Console;" vertex="1" parent="1">
          <mxGeometry x="806.2700000000001" y="-510" width="190" height="30" as="geometry" />
        </mxCell>
        <mxCell id="HGW-tUA6Mwg1vxqJW8UV-139" value="" style="html=1;dashed=0;whiteSpace=wrap;shape=partialRectangle;right=0;" vertex="1" parent="1">
          <mxGeometry x="808.1299999999999" y="-410" width="234.37" height="30" as="geometry" />
        </mxCell>
        <mxCell id="HGW-tUA6Mwg1vxqJW8UV-140" value="" style="endArrow=none;html=1;rounded=0;fontSize=12;startSize=8;endSize=8;curved=1;" edge="1" parent="1">
          <mxGeometry width="50" height="50" relative="1" as="geometry">
            <mxPoint x="863.3799999999999" y="-380" as="sourcePoint" />
            <mxPoint x="863.3799999999999" y="-410" as="targetPoint" />
          </mxGeometry>
        </mxCell>
        <mxCell id="HGW-tUA6Mwg1vxqJW8UV-141" value="&lt;font face=&quot;Lucida Console&quot;&gt;DB26&amp;nbsp; Application Date&lt;/font&gt;" style="text;html=1;align=center;verticalAlign=middle;resizable=0;points=[];autosize=1;strokeColor=none;fillColor=none;fontSize=16;" vertex="1" parent="1">
          <mxGeometry x="802.4999999999998" y="-410" width="240" height="30" as="geometry" />
        </mxCell>
        <mxCell id="HGW-tUA6Mwg1vxqJW8UV-142" value="Menu&amp;nbsp;&lt;div&gt;Access Request&lt;/div&gt;" style="text;html=1;align=center;verticalAlign=middle;resizable=0;points=[];autosize=1;strokeColor=none;fillColor=none;fontSize=15;fontFamily=Lucida Console;" vertex="1" parent="1">
          <mxGeometry x="172.5" y="-530" width="150" height="50" as="geometry" />
        </mxCell>
        <mxCell id="HGW-tUA6Mwg1vxqJW8UV-143" value="semester Id" style="text;html=1;align=center;verticalAlign=middle;resizable=0;points=[];autosize=1;strokeColor=none;fillColor=none;fontSize=15;fontFamily=Lucida Console;" vertex="1" parent="1">
          <mxGeometry x="288.75" y="-430" width="120" height="30" as="geometry" />
        </mxCell>
        <mxCell id="HGW-tUA6Mwg1vxqJW8UV-144" value="Available Slot" style="text;html=1;align=center;verticalAlign=middle;resizable=0;points=[];autosize=1;strokeColor=none;fillColor=none;fontSize=15;fontFamily=Lucida Console;" vertex="1" parent="1">
          <mxGeometry x="323" y="-390" width="150" height="30" as="geometry" />
        </mxCell>
        <mxCell id="HGW-tUA6Mwg1vxqJW8UV-145" style="edgeStyle=orthogonalEdgeStyle;rounded=0;orthogonalLoop=1;jettySize=auto;html=1;" edge="1" parent="1">
          <mxGeometry relative="1" as="geometry">
            <mxPoint x="470" y="-440" as="targetPoint" />
            <mxPoint x="290.5" y="-360.52" as="sourcePoint" />
          </mxGeometry>
        </mxCell>
        <mxCell id="HGW-tUA6Mwg1vxqJW8UV-146" style="edgeStyle=orthogonalEdgeStyle;rounded=0;orthogonalLoop=1;jettySize=auto;html=1;" edge="1" parent="1">
          <mxGeometry relative="1" as="geometry">
            <mxPoint x="291.0238095238092" y="-340" as="targetPoint" />
            <mxPoint x="490.5238095238092" y="-439.48" as="sourcePoint" />
            <Array as="points">
              <mxPoint x="491" y="-340" />
            </Array>
          </mxGeometry>
        </mxCell>
        <mxCell id="HGW-tUA6Mwg1vxqJW8UV-147" value="Request Slot" style="text;html=1;align=center;verticalAlign=middle;resizable=0;points=[];autosize=1;strokeColor=none;fillColor=none;fontSize=15;fontFamily=Lucida Console;" vertex="1" parent="1">
          <mxGeometry x="350" y="-363" width="130" height="30" as="geometry" />
        </mxCell>
        <mxCell id="HGW-tUA6Mwg1vxqJW8UV-148" value="Application Id" style="text;html=1;align=center;verticalAlign=middle;resizable=0;points=[];autosize=1;strokeColor=none;fillColor=none;fontSize=15;fontFamily=Lucida Console;" vertex="1" parent="1">
          <mxGeometry x="340.5000000000001" y="-320" width="150" height="30" as="geometry" />
        </mxCell>
        <mxCell id="HGW-tUA6Mwg1vxqJW8UV-149" style="edgeStyle=orthogonalEdgeStyle;rounded=0;orthogonalLoop=1;jettySize=auto;html=1;" edge="1" parent="1">
          <mxGeometry relative="1" as="geometry">
            <mxPoint x="309.0038095238092" y="-290" as="targetPoint" />
            <mxPoint x="510" y="-440" as="sourcePoint" />
            <Array as="points">
              <mxPoint x="508.98" y="-290" />
            </Array>
          </mxGeometry>
        </mxCell>
        <mxCell id="HGW-tUA6Mwg1vxqJW8UV-150" style="edgeStyle=orthogonalEdgeStyle;rounded=0;orthogonalLoop=1;jettySize=auto;html=1;" edge="1" parent="1">
          <mxGeometry relative="1" as="geometry">
            <mxPoint x="670" y="-250" as="targetPoint" />
            <mxPoint x="530" y="-440" as="sourcePoint" />
            <Array as="points">
              <mxPoint x="530" y="-250" />
            </Array>
          </mxGeometry>
        </mxCell>
        <mxCell id="HGW-tUA6Mwg1vxqJW8UV-151" value="User Id" style="text;html=1;align=center;verticalAlign=middle;resizable=0;points=[];autosize=1;strokeColor=none;fillColor=none;fontSize=15;fontFamily=Lucida Console;" vertex="1" parent="1">
          <mxGeometry x="555.0000000000001" y="-280" width="90" height="30" as="geometry" />
        </mxCell>
        <mxCell id="HGW-tUA6Mwg1vxqJW8UV-152" value="User Id" style="text;html=1;align=center;verticalAlign=middle;resizable=0;points=[];autosize=1;strokeColor=none;fillColor=none;fontSize=15;fontFamily=Lucida Console;" vertex="1" parent="1">
          <mxGeometry x="635.0000000000001" y="-520" width="90" height="30" as="geometry" />
        </mxCell>
        <mxCell id="HGW-tUA6Mwg1vxqJW8UV-153" style="edgeStyle=orthogonalEdgeStyle;rounded=0;orthogonalLoop=1;jettySize=auto;html=1;" edge="1" parent="1">
          <mxGeometry relative="1" as="geometry">
            <mxPoint x="800" y="-500" as="targetPoint" />
            <mxPoint x="640" y="-500" as="sourcePoint" />
            <Array as="points">
              <mxPoint x="610" y="-500" />
              <mxPoint x="610" y="-500" />
            </Array>
          </mxGeometry>
        </mxCell>
        <mxCell id="HGW-tUA6Mwg1vxqJW8UV-154" value="Extension of Application" style="text;html=1;align=center;verticalAlign=middle;resizable=0;points=[];autosize=1;strokeColor=none;fillColor=none;fontSize=15;fontFamily=Lucida Console;" vertex="1" parent="1">
          <mxGeometry x="48.75" y="-481" width="240" height="30" as="geometry" />
        </mxCell>
        <mxCell id="HGW-tUA6Mwg1vxqJW8UV-155" style="edgeStyle=orthogonalEdgeStyle;rounded=0;orthogonalLoop=1;jettySize=auto;html=1;entryX=0.493;entryY=-0.049;entryDx=0;entryDy=0;entryPerimeter=0;" edge="1" parent="1" target="HGW-tUA6Mwg1vxqJW8UV-141">
          <mxGeometry relative="1" as="geometry">
            <mxPoint x="804.75" y="-450" as="targetPoint" />
            <mxPoint x="620" y="-460" as="sourcePoint" />
            <Array as="points">
              <mxPoint x="920" y="-460" />
              <mxPoint x="920" y="-411" />
            </Array>
          </mxGeometry>
        </mxCell>
        <mxCell id="HGW-tUA6Mwg1vxqJW8UV-156" value="Extension of Application" style="text;html=1;align=center;verticalAlign=middle;resizable=0;points=[];autosize=1;strokeColor=none;fillColor=none;fontSize=15;fontFamily=Lucida Console;" vertex="1" parent="1">
          <mxGeometry x="609.25" y="-481" width="240" height="30" as="geometry" />
        </mxCell>
        <mxCell id="HGW-tUA6Mwg1vxqJW8UV-157" value="Applicant" style="html=1;dashed=0;whiteSpace=wrap;fontFamily=Lucida Console;fontSize=15;" vertex="1" parent="1">
          <mxGeometry x="768.69" y="-363" width="127.5" height="50" as="geometry" />
        </mxCell>
        <mxCell id="HGW-tUA6Mwg1vxqJW8UV-158" style="edgeStyle=orthogonalEdgeStyle;rounded=0;orthogonalLoop=1;jettySize=auto;html=1;" edge="1" parent="1">
          <mxGeometry relative="1" as="geometry">
            <mxPoint x="761" y="-330" as="targetPoint" />
            <mxPoint x="559.7538095238092" y="-440.03" as="sourcePoint" />
            <Array as="points">
              <mxPoint x="560" y="-330" />
            </Array>
          </mxGeometry>
        </mxCell>
        <mxCell id="HGW-tUA6Mwg1vxqJW8UV-159" style="edgeStyle=orthogonalEdgeStyle;rounded=0;orthogonalLoop=1;jettySize=auto;html=1;exitX=1;exitY=0.5;exitDx=0;exitDy=0;" edge="1" parent="1" source="HGW-tUA6Mwg1vxqJW8UV-160">
          <mxGeometry relative="1" as="geometry">
            <mxPoint x="410" y="-720" as="targetPoint" />
          </mxGeometry>
        </mxCell>
        <mxCell id="HGW-tUA6Mwg1vxqJW8UV-160" value="Applicant" style="html=1;dashed=0;whiteSpace=wrap;fontFamily=Lucida Console;fontSize=15;" vertex="1" parent="1">
          <mxGeometry x="42" y="-745" width="127.5" height="50" as="geometry" />
        </mxCell>
        <mxCell id="HGW-tUA6Mwg1vxqJW8UV-161" value="&lt;span&gt;Requirements&lt;/span&gt;" style="text;html=1;align=center;verticalAlign=middle;resizable=0;points=[];autosize=1;strokeColor=none;fillColor=none;fontSize=15;fontFamily=Lucida Console;" vertex="1" parent="1">
          <mxGeometry x="226.75000000000006" y="-745" width="130" height="30" as="geometry" />
        </mxCell>
        <mxCell id="HGW-tUA6Mwg1vxqJW8UV-162" value="Account Credentials" style="text;html=1;align=center;verticalAlign=middle;resizable=0;points=[];autosize=1;strokeColor=none;fillColor=none;fontSize=15;fontFamily=Lucida Console;" vertex="1" parent="1">
          <mxGeometry x="558" y="-360" width="200" height="30" as="geometry" />
        </mxCell>
        <mxCell id="HGW-tUA6Mwg1vxqJW8UV-163" value="7.0" style="swimlane;fontStyle=0;childLayout=stackLayout;horizontal=1;startSize=20;fillColor=#ffffff;horizontalStack=0;resizeParent=1;resizeParentMax=0;resizeLast=0;collapsible=0;marginBottom=0;swimlaneFillColor=#ffffff;rounded=1;fontSize=15;fontFamily=Lucida Console;" vertex="1" parent="1">
          <mxGeometry x="1523.3600000000001" y="-1671" width="140" height="100" as="geometry" />
        </mxCell>
        <mxCell id="HGW-tUA6Mwg1vxqJW8UV-164" value="Set the total&lt;div&gt;Slot&lt;/div&gt;" style="text;html=1;align=center;verticalAlign=middle;resizable=0;points=[];autosize=1;strokeColor=none;fillColor=none;perimeterSpacing=0;spacingTop=15;spacingBottom=15;fontFamily=Lucida Console;fontSize=15;" vertex="1" parent="HGW-tUA6Mwg1vxqJW8UV-163">
          <mxGeometry y="20" width="140" height="80" as="geometry" />
        </mxCell>
        <mxCell id="HGW-tUA6Mwg1vxqJW8UV-165" style="edgeStyle=orthogonalEdgeStyle;rounded=0;orthogonalLoop=1;jettySize=auto;html=1;exitX=1;exitY=0.5;exitDx=0;exitDy=0;" edge="1" parent="1" source="HGW-tUA6Mwg1vxqJW8UV-166">
          <mxGeometry relative="1" as="geometry">
            <mxPoint x="1509.86" y="-1614.7142857142858" as="targetPoint" />
          </mxGeometry>
        </mxCell>
        <mxCell id="HGW-tUA6Mwg1vxqJW8UV-166" value="Dept Head" style="html=1;dashed=0;whiteSpace=wrap;fontSize=15;fontFamily=Lucida Console;" vertex="1" parent="1">
          <mxGeometry x="1175.99" y="-1640" width="127.5" height="50" as="geometry" />
        </mxCell>
        <mxCell id="HGW-tUA6Mwg1vxqJW8UV-167" value="Total Slot in Dept" style="text;html=1;align=center;verticalAlign=middle;resizable=0;points=[];autosize=1;strokeColor=none;fillColor=none;fontSize=15;fontFamily=Lucida Console;" vertex="1" parent="1">
          <mxGeometry x="1314.74" y="-1641" width="190" height="30" as="geometry" />
        </mxCell>
        <mxCell id="HGW-tUA6Mwg1vxqJW8UV-168" value="" style="html=1;dashed=0;whiteSpace=wrap;shape=partialRectangle;right=0;" vertex="1" parent="1">
          <mxGeometry x="1876.5400000000002" y="-1630" width="167.93" height="30" as="geometry" />
        </mxCell>
        <mxCell id="HGW-tUA6Mwg1vxqJW8UV-169" value="" style="endArrow=none;html=1;rounded=0;fontSize=12;startSize=8;endSize=8;curved=1;" edge="1" parent="1">
          <mxGeometry width="50" height="50" relative="1" as="geometry">
            <mxPoint x="1931.7899999999997" y="-1600" as="sourcePoint" />
            <mxPoint x="1931.7899999999997" y="-1630" as="targetPoint" />
          </mxGeometry>
        </mxCell>
        <mxCell id="HGW-tUA6Mwg1vxqJW8UV-170" value="&lt;font face=&quot;Lucida Console&quot;&gt;DB3&amp;nbsp; Department&lt;/font&gt;" style="text;html=1;align=center;verticalAlign=middle;resizable=0;points=[];autosize=1;strokeColor=none;fillColor=none;fontSize=16;" vertex="1" parent="1">
          <mxGeometry x="1875.5099999999995" y="-1629" width="170" height="30" as="geometry" />
        </mxCell>
        <mxCell id="HGW-tUA6Mwg1vxqJW8UV-171" value="Total Slot in Dept" style="text;html=1;align=center;verticalAlign=middle;resizable=0;points=[];autosize=1;strokeColor=none;fillColor=none;fontSize=15;fontFamily=Lucida Console;" vertex="1" parent="1">
          <mxGeometry x="1659.74" y="-1636" width="190" height="30" as="geometry" />
        </mxCell>
        <mxCell id="HGW-tUA6Mwg1vxqJW8UV-172" style="edgeStyle=orthogonalEdgeStyle;rounded=0;orthogonalLoop=1;jettySize=auto;html=1;" edge="1" parent="1">
          <mxGeometry relative="1" as="geometry">
            <mxPoint x="1869.86" y="-1610" as="targetPoint" />
            <mxPoint x="1669.86" y="-1610" as="sourcePoint" />
            <Array as="points">
              <mxPoint x="1859.86" y="-1610" />
            </Array>
          </mxGeometry>
        </mxCell>
        <mxCell id="HGW-tUA6Mwg1vxqJW8UV-173" value="8.0" style="swimlane;fontStyle=0;childLayout=stackLayout;horizontal=1;startSize=20;fillColor=#ffffff;horizontalStack=0;resizeParent=1;resizeParentMax=0;resizeLast=0;collapsible=0;marginBottom=0;swimlaneFillColor=#ffffff;rounded=1;fontSize=15;fontFamily=Lucida Console;" vertex="1" parent="1">
          <mxGeometry x="1512" y="-1525" width="140" height="80" as="geometry" />
        </mxCell>
        <mxCell id="HGW-tUA6Mwg1vxqJW8UV-174" style="edgeStyle=orthogonalEdgeStyle;rounded=0;orthogonalLoop=1;jettySize=auto;html=1;" edge="1" parent="HGW-tUA6Mwg1vxqJW8UV-173" source="HGW-tUA6Mwg1vxqJW8UV-176">
          <mxGeometry relative="1" as="geometry">
            <mxPoint x="274.5" y="50" as="targetPoint" />
          </mxGeometry>
        </mxCell>
        <mxCell id="HGW-tUA6Mwg1vxqJW8UV-175" style="edgeStyle=orthogonalEdgeStyle;rounded=0;orthogonalLoop=1;jettySize=auto;html=1;" edge="1" parent="HGW-tUA6Mwg1vxqJW8UV-173">
          <mxGeometry relative="1" as="geometry">
            <mxPoint x="276.14" y="20" as="targetPoint" />
            <mxPoint x="141.64" y="20" as="sourcePoint" />
          </mxGeometry>
        </mxCell>
        <mxCell id="HGW-tUA6Mwg1vxqJW8UV-176" value="Scholar Login" style="text;html=1;align=center;verticalAlign=middle;resizable=0;points=[];autosize=1;strokeColor=none;fillColor=none;perimeterSpacing=0;spacingTop=15;spacingBottom=15;fontFamily=Lucida Console;fontSize=15;" vertex="1" parent="HGW-tUA6Mwg1vxqJW8UV-173">
          <mxGeometry y="20" width="140" height="60" as="geometry" />
        </mxCell>
        <mxCell id="HGW-tUA6Mwg1vxqJW8UV-177" value="" style="html=1;dashed=0;whiteSpace=wrap;shape=partialRectangle;right=0;fontSize=15;fontFamily=Lucida Console;" vertex="1" parent="1">
          <mxGeometry x="1238.44" y="-1366" width="185.12" height="30" as="geometry" />
        </mxCell>
        <mxCell id="HGW-tUA6Mwg1vxqJW8UV-178" value="" style="endArrow=none;html=1;rounded=0;fontSize=15;startSize=8;endSize=8;curved=1;fontFamily=Lucida Console;" edge="1" parent="1">
          <mxGeometry width="50" height="50" relative="1" as="geometry">
            <mxPoint x="1293.25" y="-1337" as="sourcePoint" />
            <mxPoint x="1293.25" y="-1367" as="targetPoint" />
          </mxGeometry>
        </mxCell>
        <mxCell id="HGW-tUA6Mwg1vxqJW8UV-179" value="&lt;font&gt;DB12&amp;nbsp; Scholar Info&lt;/font&gt;" style="text;html=1;align=center;verticalAlign=middle;resizable=0;points=[];autosize=1;strokeColor=none;fillColor=none;fontSize=15;fontFamily=Lucida Console;" vertex="1" parent="1">
          <mxGeometry x="1236" y="-1365" width="190" height="30" as="geometry" />
        </mxCell>
        <mxCell id="HGW-tUA6Mwg1vxqJW8UV-180" value="" style="html=1;dashed=0;whiteSpace=wrap;shape=partialRectangle;right=0;fontSize=15;fontFamily=Lucida Console;" vertex="1" parent="1">
          <mxGeometry x="1286.12" y="-1430" width="118.38" height="30" as="geometry" />
        </mxCell>
        <mxCell id="HGW-tUA6Mwg1vxqJW8UV-181" value="" style="endArrow=none;html=1;rounded=0;fontSize=15;startSize=8;endSize=8;curved=1;fontFamily=Lucida Console;" edge="1" parent="1">
          <mxGeometry width="50" height="50" relative="1" as="geometry">
            <mxPoint x="1335.25" y="-1400" as="sourcePoint" />
            <mxPoint x="1335.25" y="-1430" as="targetPoint" />
          </mxGeometry>
        </mxCell>
        <mxCell id="HGW-tUA6Mwg1vxqJW8UV-182" value="&lt;font&gt;DB9&amp;nbsp; Users&lt;/font&gt;" style="text;html=1;align=center;verticalAlign=middle;resizable=0;points=[];autosize=1;strokeColor=none;fillColor=none;fontSize=15;fontFamily=Lucida Console;" vertex="1" parent="1">
          <mxGeometry x="1292.5" y="-1430" width="110" height="30" as="geometry" />
        </mxCell>
        <mxCell id="HGW-tUA6Mwg1vxqJW8UV-183" value="" style="html=1;dashed=0;whiteSpace=wrap;shape=partialRectangle;right=0;" vertex="1" parent="1">
          <mxGeometry x="1802.0300000000007" y="-1445" width="167.93" height="30" as="geometry" />
        </mxCell>
        <mxCell id="HGW-tUA6Mwg1vxqJW8UV-184" value="" style="endArrow=none;html=1;rounded=0;fontSize=12;startSize=8;endSize=8;curved=1;" edge="1" parent="1">
          <mxGeometry width="50" height="50" relative="1" as="geometry">
            <mxPoint x="1855.7399999999998" y="-1415" as="sourcePoint" />
            <mxPoint x="1855.7399999999998" y="-1445" as="targetPoint" />
          </mxGeometry>
        </mxCell>
        <mxCell id="HGW-tUA6Mwg1vxqJW8UV-185" value="&lt;font face=&quot;Lucida Console&quot;&gt;DB4&amp;nbsp; Church&lt;/font&gt;" style="text;html=1;align=center;verticalAlign=middle;resizable=0;points=[];autosize=1;strokeColor=none;fillColor=none;fontSize=16;" vertex="1" parent="1">
          <mxGeometry x="1808.2450000000006" y="-1445" width="130" height="30" as="geometry" />
        </mxCell>
        <mxCell id="HGW-tUA6Mwg1vxqJW8UV-186" value="" style="html=1;dashed=0;whiteSpace=wrap;shape=partialRectangle;right=0;" vertex="1" parent="1">
          <mxGeometry x="1802.0300000000007" y="-1491" width="167.93" height="30" as="geometry" />
        </mxCell>
        <mxCell id="HGW-tUA6Mwg1vxqJW8UV-187" value="" style="endArrow=none;html=1;rounded=0;fontSize=12;startSize=8;endSize=8;curved=1;" edge="1" parent="1">
          <mxGeometry width="50" height="50" relative="1" as="geometry">
            <mxPoint x="1862.2799999999997" y="-1461" as="sourcePoint" />
            <mxPoint x="1862.2799999999997" y="-1491" as="targetPoint" />
          </mxGeometry>
        </mxCell>
        <mxCell id="HGW-tUA6Mwg1vxqJW8UV-188" value="&lt;font face=&quot;Lucida Console&quot;&gt;DB3&amp;nbsp; Department&lt;/font&gt;" style="text;html=1;align=center;verticalAlign=middle;resizable=0;points=[];autosize=1;strokeColor=none;fillColor=none;fontSize=16;" vertex="1" parent="1">
          <mxGeometry x="1800.9950000000006" y="-1490" width="170" height="30" as="geometry" />
        </mxCell>
        <mxCell id="HGW-tUA6Mwg1vxqJW8UV-189" value="" style="html=1;dashed=0;whiteSpace=wrap;shape=partialRectangle;right=0;" vertex="1" parent="1">
          <mxGeometry x="1802.0300000000007" y="-1530" width="167.93" height="30" as="geometry" />
        </mxCell>
        <mxCell id="HGW-tUA6Mwg1vxqJW8UV-190" value="" style="endArrow=none;html=1;rounded=0;fontSize=12;startSize=8;endSize=8;curved=1;" edge="1" parent="1">
          <mxGeometry width="50" height="50" relative="1" as="geometry">
            <mxPoint x="1865.3200000000002" y="-1500" as="sourcePoint" />
            <mxPoint x="1865.3200000000002" y="-1530" as="targetPoint" />
          </mxGeometry>
        </mxCell>
        <mxCell id="HGW-tUA6Mwg1vxqJW8UV-191" value="&lt;font face=&quot;Lucida Console&quot;&gt;DB5&amp;nbsp; Schedule&lt;/font&gt;" style="text;html=1;align=center;verticalAlign=middle;resizable=0;points=[];autosize=1;strokeColor=none;fillColor=none;fontSize=16;" vertex="1" parent="1">
          <mxGeometry x="1810.9950000000006" y="-1530" width="150" height="30" as="geometry" />
        </mxCell>
        <mxCell id="HGW-tUA6Mwg1vxqJW8UV-192" value="Scholar" style="html=1;dashed=0;whiteSpace=wrap;fontSize=15;fontFamily=Lucida Console;" vertex="1" parent="1">
          <mxGeometry x="1173.3799999999999" y="-1510" width="127.5" height="50" as="geometry" />
        </mxCell>
        <mxCell id="HGW-tUA6Mwg1vxqJW8UV-193" value="Selected IDs" style="text;html=1;align=center;verticalAlign=middle;resizable=0;points=[];autosize=1;strokeColor=none;fillColor=none;fontSize=15;fontFamily=Lucida Console;" vertex="1" parent="1">
          <mxGeometry x="1339.38" y="-1525" width="130" height="30" as="geometry" />
        </mxCell>
        <mxCell id="HGW-tUA6Mwg1vxqJW8UV-194" style="edgeStyle=orthogonalEdgeStyle;rounded=0;orthogonalLoop=1;jettySize=auto;html=1;" edge="1" parent="1">
          <mxGeometry relative="1" as="geometry">
            <mxPoint x="1509.3799999999999" y="-1495" as="targetPoint" />
            <mxPoint x="1309.3799999999999" y="-1495" as="sourcePoint" />
            <Array as="points">
              <mxPoint x="1499.3799999999999" y="-1495" />
            </Array>
          </mxGeometry>
        </mxCell>
        <mxCell id="HGW-tUA6Mwg1vxqJW8UV-195" value="username &amp;amp; password" style="text;html=1;align=center;verticalAlign=middle;resizable=0;points=[];autosize=1;strokeColor=none;fillColor=none;fontSize=15;fontFamily=Lucida Console;" vertex="1" parent="1">
          <mxGeometry x="1303.49" y="-1495" width="200" height="30" as="geometry" />
        </mxCell>
        <mxCell id="HGW-tUA6Mwg1vxqJW8UV-196" style="edgeStyle=orthogonalEdgeStyle;rounded=0;orthogonalLoop=1;jettySize=auto;html=1;" edge="1" parent="1">
          <mxGeometry relative="1" as="geometry">
            <mxPoint x="1508.4899999999998" y="-1465" as="targetPoint" />
            <mxPoint x="1308.4899999999998" y="-1465" as="sourcePoint" />
            <Array as="points">
              <mxPoint x="1498.4899999999998" y="-1465" />
            </Array>
          </mxGeometry>
        </mxCell>
        <mxCell id="HGW-tUA6Mwg1vxqJW8UV-197" value="Selected Dept" style="text;html=1;align=center;verticalAlign=middle;resizable=0;points=[];autosize=1;strokeColor=none;fillColor=none;fontSize=15;fontFamily=Lucida Console;" vertex="1" parent="1">
          <mxGeometry x="1649.38" y="-1500" width="140" height="30" as="geometry" />
        </mxCell>
        <mxCell id="HGW-tUA6Mwg1vxqJW8UV-198" value="Selected sched" style="text;html=1;align=center;verticalAlign=middle;resizable=0;points=[];autosize=1;strokeColor=none;fillColor=none;fontSize=15;fontFamily=Lucida Console;" vertex="1" parent="1">
          <mxGeometry x="1646.0200000000002" y="-1530" width="150" height="30" as="geometry" />
        </mxCell>
        <mxCell id="HGW-tUA6Mwg1vxqJW8UV-199" style="edgeStyle=orthogonalEdgeStyle;rounded=0;orthogonalLoop=1;jettySize=auto;html=1;" edge="1" parent="1">
          <mxGeometry relative="1" as="geometry">
            <mxPoint x="1786.5" y="-1430" as="targetPoint" />
            <mxPoint x="1590" y="-1440" as="sourcePoint" />
            <Array as="points">
              <mxPoint x="1590" y="-1430" />
            </Array>
          </mxGeometry>
        </mxCell>
        <mxCell id="HGW-tUA6Mwg1vxqJW8UV-200" value="Selected Church" style="text;html=1;align=center;verticalAlign=middle;resizable=0;points=[];autosize=1;strokeColor=none;fillColor=none;fontSize=15;fontFamily=Lucida Console;" vertex="1" parent="1">
          <mxGeometry x="1626" y="-1452" width="160" height="30" as="geometry" />
        </mxCell>
        <mxCell id="HGW-tUA6Mwg1vxqJW8UV-201" style="edgeStyle=orthogonalEdgeStyle;rounded=0;orthogonalLoop=1;jettySize=auto;html=1;" edge="1" parent="1">
          <mxGeometry relative="1" as="geometry">
            <mxPoint x="1530" y="-1440" as="targetPoint" />
            <mxPoint x="1408.9999999999998" y="-1410.29" as="sourcePoint" />
            <Array as="points">
              <mxPoint x="1530" y="-1410" />
            </Array>
          </mxGeometry>
        </mxCell>
        <mxCell id="HGW-tUA6Mwg1vxqJW8UV-202" value="User Id" style="text;html=1;align=center;verticalAlign=middle;resizable=0;points=[];autosize=1;strokeColor=none;fillColor=none;fontSize=15;fontFamily=Lucida Console;" vertex="1" parent="1">
          <mxGeometry x="1408.75" y="-1434" width="90" height="30" as="geometry" />
        </mxCell>
        <mxCell id="HGW-tUA6Mwg1vxqJW8UV-203" style="edgeStyle=orthogonalEdgeStyle;rounded=0;orthogonalLoop=1;jettySize=auto;html=1;" edge="1" parent="1">
          <mxGeometry relative="1" as="geometry">
            <mxPoint x="1435.2399999999998" y="-1350" as="targetPoint" />
            <mxPoint x="1560" y="-1440" as="sourcePoint" />
            <Array as="points">
              <mxPoint x="1560" y="-1350" />
            </Array>
          </mxGeometry>
        </mxCell>
        <mxCell id="HGW-tUA6Mwg1vxqJW8UV-204" value="QR Code" style="text;html=1;align=center;verticalAlign=middle;resizable=0;points=[];autosize=1;strokeColor=none;fillColor=none;fontSize=15;fontFamily=Lucida Console;" vertex="1" parent="1">
          <mxGeometry x="1457" y="-1374" width="90" height="30" as="geometry" />
        </mxCell>
        <mxCell id="HGW-tUA6Mwg1vxqJW8UV-205" style="edgeStyle=orthogonalEdgeStyle;rounded=0;orthogonalLoop=1;jettySize=auto;html=1;" edge="1" parent="1">
          <mxGeometry relative="1" as="geometry">
            <mxPoint x="1882.0399999999995" y="-1231" as="targetPoint" />
            <mxPoint x="1682.04" y="-1231" as="sourcePoint" />
            <Array as="points">
              <mxPoint x="1682.04" y="-1231" />
            </Array>
          </mxGeometry>
        </mxCell>
        <mxCell id="HGW-tUA6Mwg1vxqJW8UV-206" value="Fellowship Date" style="text;html=1;align=center;verticalAlign=middle;resizable=0;points=[];autosize=1;strokeColor=none;fillColor=none;fontSize=15;fontFamily=Lucida Console;" vertex="1" parent="1">
          <mxGeometry x="1689.25" y="-1254" width="160" height="30" as="geometry" />
        </mxCell>
        <mxCell id="HGW-tUA6Mwg1vxqJW8UV-207" style="edgeStyle=orthogonalEdgeStyle;rounded=0;orthogonalLoop=1;jettySize=auto;html=1;" edge="1" parent="1">
          <mxGeometry relative="1" as="geometry">
            <mxPoint x="1518.29" y="-1231" as="targetPoint" />
            <mxPoint x="1297.04" y="-1231" as="sourcePoint" />
            <Array as="points">
              <mxPoint x="1297.29" y="-1231" />
            </Array>
          </mxGeometry>
        </mxCell>
        <mxCell id="HGW-tUA6Mwg1vxqJW8UV-208" value="Scholar Admin" style="html=1;dashed=0;whiteSpace=wrap;fontSize=15;fontFamily=Lucida Console;" vertex="1" parent="1">
          <mxGeometry x="1153.3899999999999" y="-1251" width="137.15" height="50" as="geometry" />
        </mxCell>
        <mxCell id="HGW-tUA6Mwg1vxqJW8UV-209" value="9.0" style="swimlane;fontStyle=0;childLayout=stackLayout;horizontal=1;startSize=20;fillColor=#ffffff;horizontalStack=0;resizeParent=1;resizeParentMax=0;resizeLast=0;collapsible=0;marginBottom=0;swimlaneFillColor=#ffffff;rounded=1;fontSize=15;fontFamily=Lucida Console;" vertex="1" parent="1">
          <mxGeometry x="1524.3200000000002" y="-1286" width="150" height="110" as="geometry" />
        </mxCell>
        <mxCell id="HGW-tUA6Mwg1vxqJW8UV-210" value="Set the&amp;nbsp;&lt;div&gt;Fellowship Date&lt;div&gt;&lt;br&gt;&lt;/div&gt;&lt;/div&gt;" style="text;html=1;align=center;verticalAlign=middle;resizable=0;points=[];autosize=1;strokeColor=none;fillColor=none;perimeterSpacing=0;spacingTop=15;spacingBottom=15;fontFamily=Lucida Console;fontSize=15;" vertex="1" parent="HGW-tUA6Mwg1vxqJW8UV-209">
          <mxGeometry y="20" width="150" height="90" as="geometry" />
        </mxCell>
        <mxCell id="HGW-tUA6Mwg1vxqJW8UV-211" value="Fellowship Date" style="text;html=1;align=center;verticalAlign=middle;resizable=0;points=[];autosize=1;strokeColor=none;fillColor=none;fontSize=15;fontFamily=Lucida Console;" vertex="1" parent="1">
          <mxGeometry x="1320.67" y="-1261" width="160" height="30" as="geometry" />
        </mxCell>
        <mxCell id="HGW-tUA6Mwg1vxqJW8UV-212" value="" style="html=1;dashed=0;whiteSpace=wrap;shape=partialRectangle;right=0;" vertex="1" parent="1">
          <mxGeometry x="1893.0700000000002" y="-1246" width="167.93" height="30" as="geometry" />
        </mxCell>
        <mxCell id="HGW-tUA6Mwg1vxqJW8UV-213" value="" style="endArrow=none;html=1;rounded=0;fontSize=12;startSize=8;endSize=8;curved=1;" edge="1" parent="1">
          <mxGeometry width="50" height="50" relative="1" as="geometry">
            <mxPoint x="1948.3200000000002" y="-1216" as="sourcePoint" />
            <mxPoint x="1948.3200000000002" y="-1246" as="targetPoint" />
          </mxGeometry>
        </mxCell>
        <mxCell id="HGW-tUA6Mwg1vxqJW8UV-214" value="&lt;font face=&quot;Lucida Console&quot;&gt;DB4&amp;nbsp; Church&lt;/font&gt;" style="text;html=1;align=center;verticalAlign=middle;resizable=0;points=[];autosize=1;strokeColor=none;fillColor=none;fontSize=16;" vertex="1" parent="1">
          <mxGeometry x="1899.7899999999995" y="-1246" width="130" height="30" as="geometry" />
        </mxCell>
        <mxCell id="HGW-tUA6Mwg1vxqJW8UV-215" style="edgeStyle=orthogonalEdgeStyle;rounded=0;orthogonalLoop=1;jettySize=auto;html=1;" edge="1" parent="1">
          <mxGeometry relative="1" as="geometry">
            <mxPoint x="1903.3899999999999" y="-1196" as="targetPoint" />
            <mxPoint x="1682.04" y="-1091" as="sourcePoint" />
            <Array as="points">
              <mxPoint x="1682.04" y="-1091" />
            </Array>
          </mxGeometry>
        </mxCell>
        <mxCell id="HGW-tUA6Mwg1vxqJW8UV-216" value="Caregroup Sched" style="text;html=1;align=center;verticalAlign=middle;resizable=0;points=[];autosize=1;strokeColor=none;fillColor=none;fontSize=15;fontFamily=Lucida Console;" vertex="1" parent="1">
          <mxGeometry x="1689.25" y="-1114" width="160" height="30" as="geometry" />
        </mxCell>
        <mxCell id="HGW-tUA6Mwg1vxqJW8UV-217" style="edgeStyle=orthogonalEdgeStyle;rounded=0;orthogonalLoop=1;jettySize=auto;html=1;" edge="1" parent="1">
          <mxGeometry relative="1" as="geometry">
            <mxPoint x="1518.29" y="-1091" as="targetPoint" />
            <mxPoint x="1297.04" y="-1091" as="sourcePoint" />
            <Array as="points">
              <mxPoint x="1297.29" y="-1091" />
            </Array>
          </mxGeometry>
        </mxCell>
        <mxCell id="HGW-tUA6Mwg1vxqJW8UV-218" value="Church Head" style="html=1;dashed=0;whiteSpace=wrap;fontSize=15;fontFamily=Lucida Console;" vertex="1" parent="1">
          <mxGeometry x="1153.3899999999999" y="-1111" width="137.15" height="50" as="geometry" />
        </mxCell>
        <mxCell id="HGW-tUA6Mwg1vxqJW8UV-219" value="10.0" style="swimlane;fontStyle=0;childLayout=stackLayout;horizontal=1;startSize=20;fillColor=#ffffff;horizontalStack=0;resizeParent=1;resizeParentMax=0;resizeLast=0;collapsible=0;marginBottom=0;swimlaneFillColor=#ffffff;rounded=1;fontSize=15;fontFamily=Lucida Console;" vertex="1" parent="1">
          <mxGeometry x="1524.3200000000002" y="-1146" width="150" height="110" as="geometry" />
        </mxCell>
        <mxCell id="HGW-tUA6Mwg1vxqJW8UV-220" value="Set the&amp;nbsp;&lt;div&gt;Caregroup Date&lt;div&gt;&lt;br&gt;&lt;/div&gt;&lt;/div&gt;" style="text;html=1;align=center;verticalAlign=middle;resizable=0;points=[];autosize=1;strokeColor=none;fillColor=none;perimeterSpacing=0;spacingTop=15;spacingBottom=15;fontFamily=Lucida Console;fontSize=15;" vertex="1" parent="HGW-tUA6Mwg1vxqJW8UV-219">
          <mxGeometry y="20" width="150" height="90" as="geometry" />
        </mxCell>
        <mxCell id="HGW-tUA6Mwg1vxqJW8UV-221" value="Caregroup Date" style="text;html=1;align=center;verticalAlign=middle;resizable=0;points=[];autosize=1;strokeColor=none;fillColor=none;fontSize=15;fontFamily=Lucida Console;" vertex="1" parent="1">
          <mxGeometry x="1327.0100000000002" y="-1116" width="150" height="30" as="geometry" />
        </mxCell>
        <mxCell id="HGW-tUA6Mwg1vxqJW8UV-222" value="11.0" style="swimlane;fontStyle=0;childLayout=stackLayout;horizontal=1;startSize=20;fillColor=#ffffff;horizontalStack=0;resizeParent=1;resizeParentMax=0;resizeLast=0;collapsible=0;marginBottom=0;swimlaneFillColor=#ffffff;rounded=1;fontSize=15;fontFamily=Lucida Console;" vertex="1" parent="1">
          <mxGeometry x="1524.5500000000002" y="-985" width="160" height="100" as="geometry" />
        </mxCell>
        <mxCell id="HGW-tUA6Mwg1vxqJW8UV-223" style="edgeStyle=orthogonalEdgeStyle;rounded=0;orthogonalLoop=1;jettySize=auto;html=1;" edge="1" parent="HGW-tUA6Mwg1vxqJW8UV-222" source="HGW-tUA6Mwg1vxqJW8UV-225">
          <mxGeometry relative="1" as="geometry">
            <mxPoint x="339.0699999999997" y="60" as="targetPoint" />
          </mxGeometry>
        </mxCell>
        <mxCell id="HGW-tUA6Mwg1vxqJW8UV-224" style="edgeStyle=orthogonalEdgeStyle;rounded=0;orthogonalLoop=1;jettySize=auto;html=1;" edge="1" parent="HGW-tUA6Mwg1vxqJW8UV-222" source="HGW-tUA6Mwg1vxqJW8UV-225">
          <mxGeometry relative="1" as="geometry">
            <mxPoint x="299.0699999999997" y="170" as="targetPoint" />
            <Array as="points">
              <mxPoint x="80" y="150" />
              <mxPoint x="299" y="150" />
            </Array>
          </mxGeometry>
        </mxCell>
        <mxCell id="HGW-tUA6Mwg1vxqJW8UV-225" value="&lt;div&gt;&lt;div&gt;Create Personnel&lt;/div&gt;&lt;/div&gt;&lt;div&gt;Account&lt;/div&gt;" style="text;html=1;align=center;verticalAlign=middle;resizable=0;points=[];autosize=1;strokeColor=none;fillColor=none;perimeterSpacing=0;spacingTop=15;spacingBottom=15;fontFamily=Lucida Console;fontSize=15;" vertex="1" parent="HGW-tUA6Mwg1vxqJW8UV-222">
          <mxGeometry y="20" width="160" height="80" as="geometry" />
        </mxCell>
        <mxCell id="HGW-tUA6Mwg1vxqJW8UV-226" style="edgeStyle=orthogonalEdgeStyle;rounded=0;orthogonalLoop=1;jettySize=auto;html=1;exitX=1;exitY=0.5;exitDx=0;exitDy=0;" edge="1" parent="1" source="HGW-tUA6Mwg1vxqJW8UV-227">
          <mxGeometry relative="1" as="geometry">
            <mxPoint x="1513.62" y="-939.7142857142858" as="targetPoint" />
          </mxGeometry>
        </mxCell>
        <mxCell id="HGW-tUA6Mwg1vxqJW8UV-227" value="Dept Head" style="html=1;dashed=0;whiteSpace=wrap;fontSize=15;fontFamily=Lucida Console;" vertex="1" parent="1">
          <mxGeometry x="1203.62" y="-965" width="137.15" height="50" as="geometry" />
        </mxCell>
        <mxCell id="HGW-tUA6Mwg1vxqJW8UV-228" style="edgeStyle=orthogonalEdgeStyle;rounded=0;orthogonalLoop=1;jettySize=auto;html=1;fontSize=15;fontFamily=Lucida Console;" edge="1" parent="1">
          <mxGeometry relative="1" as="geometry">
            <mxPoint x="1581.2799999999997" y="-875" as="targetPoint" />
            <mxPoint x="1461.2799999999997" y="-825" as="sourcePoint" />
            <Array as="points">
              <mxPoint x="1581.2799999999997" y="-825" />
            </Array>
          </mxGeometry>
        </mxCell>
        <mxCell id="HGW-tUA6Mwg1vxqJW8UV-229" value="" style="endArrow=none;html=1;rounded=0;fontSize=12;startSize=8;endSize=8;curved=1;" edge="1" parent="1">
          <mxGeometry width="50" height="50" relative="1" as="geometry">
            <mxPoint x="1353.81" y="-816" as="sourcePoint" />
            <mxPoint x="1353.81" y="-846" as="targetPoint" />
          </mxGeometry>
        </mxCell>
        <mxCell id="HGW-tUA6Mwg1vxqJW8UV-230" value="&lt;font&gt;Semester Id&lt;/font&gt;" style="text;html=1;align=center;verticalAlign=middle;resizable=0;points=[];autosize=1;strokeColor=none;fillColor=none;fontSize=15;fontFamily=Lucida Console;" vertex="1" parent="1">
          <mxGeometry x="1463.6799999999998" y="-851" width="120" height="30" as="geometry" />
        </mxCell>
        <mxCell id="HGW-tUA6Mwg1vxqJW8UV-231" value="" style="html=1;dashed=0;whiteSpace=wrap;shape=partialRectangle;right=0;" vertex="1" parent="1">
          <mxGeometry x="1298.56" y="-846" width="144.5" height="30" as="geometry" />
        </mxCell>
        <mxCell id="HGW-tUA6Mwg1vxqJW8UV-232" value="&lt;font face=&quot;Lucida Console&quot;&gt;DB1&amp;nbsp; Semester&lt;/font&gt;" style="text;html=1;align=center;verticalAlign=middle;resizable=0;points=[];autosize=1;strokeColor=none;fillColor=none;fontSize=16;" vertex="1" parent="1">
          <mxGeometry x="1298.56" y="-846" width="150" height="30" as="geometry" />
        </mxCell>
        <mxCell id="HGW-tUA6Mwg1vxqJW8UV-233" value="DB9" style="html=1;dashed=0;whiteSpace=wrap;shape=mxgraph.dfd.dataStoreID;align=left;spacingLeft=3;points=[[0,0],[0.5,0],[1,0],[0,0.5],[1,0.5],[0,1],[0.5,1],[1,1]];fontSize=15;fontFamily=Lucida Console;" vertex="1" parent="1">
          <mxGeometry x="1874.87" y="-988" width="100" height="30" as="geometry" />
        </mxCell>
        <mxCell id="HGW-tUA6Mwg1vxqJW8UV-234" value="Users" style="text;html=1;align=center;verticalAlign=middle;resizable=0;points=[];autosize=1;strokeColor=none;fillColor=none;fontSize=15;fontFamily=Lucida Console;" vertex="1" parent="1">
          <mxGeometry x="1904.87" y="-988" width="70" height="30" as="geometry" />
        </mxCell>
        <mxCell id="HGW-tUA6Mwg1vxqJW8UV-235" value="Dept Personnel" style="html=1;dashed=0;whiteSpace=wrap;fontSize=15;fontFamily=Lucida Console;" vertex="1" parent="1">
          <mxGeometry x="1755.1999999999998" y="-805" width="156.85" height="50" as="geometry" />
        </mxCell>
        <mxCell id="HGW-tUA6Mwg1vxqJW8UV-236" value="" style="html=1;dashed=0;whiteSpace=wrap;shape=partialRectangle;right=0;" vertex="1" parent="1">
          <mxGeometry x="1875.9499999999998" y="-937" width="244.82" height="30" as="geometry" />
        </mxCell>
        <mxCell id="HGW-tUA6Mwg1vxqJW8UV-237" value="" style="endArrow=none;html=1;rounded=0;fontSize=12;startSize=8;endSize=8;curved=1;" edge="1" parent="1">
          <mxGeometry width="50" height="50" relative="1" as="geometry">
            <mxPoint x="1931.1999999999998" y="-907" as="sourcePoint" />
            <mxPoint x="1931.1999999999998" y="-937" as="targetPoint" />
          </mxGeometry>
        </mxCell>
        <mxCell id="HGW-tUA6Mwg1vxqJW8UV-238" value="&lt;font face=&quot;Lucida Console&quot;&gt;DB16&amp;nbsp; Dept Personnel Info&lt;/font&gt;" style="text;html=1;align=center;verticalAlign=middle;resizable=0;points=[];autosize=1;strokeColor=none;fillColor=none;fontSize=16;" vertex="1" parent="1">
          <mxGeometry x="1872.52" y="-935" width="260" height="30" as="geometry" />
        </mxCell>
        <mxCell id="HGW-tUA6Mwg1vxqJW8UV-239" value="&lt;font&gt;User Id&lt;/font&gt;" style="text;html=1;align=center;verticalAlign=middle;resizable=0;points=[];autosize=1;strokeColor=none;fillColor=none;fontSize=15;fontFamily=Lucida Console;" vertex="1" parent="1">
          <mxGeometry x="1714.48" y="-951" width="90" height="30" as="geometry" />
        </mxCell>
        <mxCell id="HGW-tUA6Mwg1vxqJW8UV-240" style="edgeStyle=orthogonalEdgeStyle;rounded=0;orthogonalLoop=1;jettySize=auto;html=1;" edge="1" parent="1">
          <mxGeometry relative="1" as="geometry">
            <mxPoint x="1863.62" y="-975" as="targetPoint" />
            <mxPoint x="1684.5500000000002" y="-975" as="sourcePoint" />
          </mxGeometry>
        </mxCell>
        <mxCell id="HGW-tUA6Mwg1vxqJW8UV-241" value="&lt;font&gt;Account Credentials&lt;/font&gt;" style="text;html=1;align=center;verticalAlign=middle;resizable=0;points=[];autosize=1;strokeColor=none;fillColor=none;fontSize=15;fontFamily=Lucida Console;" vertex="1" parent="1">
          <mxGeometry x="1671.62" y="-1003" width="200" height="30" as="geometry" />
        </mxCell>
        <mxCell id="HGW-tUA6Mwg1vxqJW8UV-242" value="&lt;font&gt;Personnel Info&lt;/font&gt;" style="text;html=1;align=center;verticalAlign=middle;resizable=0;points=[];autosize=1;strokeColor=none;fillColor=none;fontSize=15;fontFamily=Lucida Console;" vertex="1" parent="1">
          <mxGeometry x="1352.5499999999997" y="-965" width="150" height="30" as="geometry" />
        </mxCell>
        <mxCell id="HGW-tUA6Mwg1vxqJW8UV-243" style="edgeStyle=orthogonalEdgeStyle;rounded=0;orthogonalLoop=1;jettySize=auto;html=1;exitX=1;exitY=0.5;exitDx=0;exitDy=0;" edge="1" parent="1">
          <mxGeometry relative="1" as="geometry">
            <mxPoint x="1865.37" y="-895.7142857142858" as="targetPoint" />
            <mxPoint x="1692.37" y="-896" as="sourcePoint" />
          </mxGeometry>
        </mxCell>
        <mxCell id="HGW-tUA6Mwg1vxqJW8UV-244" value="&lt;font&gt;Personnel Info&lt;/font&gt;" style="text;html=1;align=center;verticalAlign=middle;resizable=0;points=[];autosize=1;strokeColor=none;fillColor=none;fontSize=15;fontFamily=Lucida Console;" vertex="1" parent="1">
          <mxGeometry x="1704.2999999999997" y="-921" width="150" height="30" as="geometry" />
        </mxCell>
        <mxCell id="HGW-tUA6Mwg1vxqJW8UV-245" value="&lt;font&gt;Account Credentials&lt;/font&gt;" style="text;html=1;align=center;verticalAlign=middle;resizable=0;points=[];autosize=1;strokeColor=none;fillColor=none;fontSize=15;fontFamily=Lucida Console;" vertex="1" parent="1">
          <mxGeometry x="1612.37" y="-861" width="200" height="30" as="geometry" />
        </mxCell>
        <mxCell id="HGW-tUA6Mwg1vxqJW8UV-246" value="12.0" style="swimlane;fontStyle=0;childLayout=stackLayout;horizontal=1;startSize=20;fillColor=#ffffff;horizontalStack=0;resizeParent=1;resizeParentMax=0;resizeLast=0;collapsible=0;marginBottom=0;swimlaneFillColor=#ffffff;rounded=1;fontSize=15;fontFamily=Lucida Console;" vertex="1" parent="1">
          <mxGeometry x="1506.9300000000003" y="-702" width="160" height="100" as="geometry" />
        </mxCell>
        <mxCell id="HGW-tUA6Mwg1vxqJW8UV-247" style="edgeStyle=orthogonalEdgeStyle;rounded=0;orthogonalLoop=1;jettySize=auto;html=1;" edge="1" parent="HGW-tUA6Mwg1vxqJW8UV-246" source="HGW-tUA6Mwg1vxqJW8UV-249">
          <mxGeometry relative="1" as="geometry">
            <mxPoint x="339.0699999999997" y="60" as="targetPoint" />
          </mxGeometry>
        </mxCell>
        <mxCell id="HGW-tUA6Mwg1vxqJW8UV-248" style="edgeStyle=orthogonalEdgeStyle;rounded=0;orthogonalLoop=1;jettySize=auto;html=1;" edge="1" parent="HGW-tUA6Mwg1vxqJW8UV-246" source="HGW-tUA6Mwg1vxqJW8UV-249">
          <mxGeometry relative="1" as="geometry">
            <mxPoint x="299.0699999999997" y="170" as="targetPoint" />
            <Array as="points">
              <mxPoint x="80" y="150" />
              <mxPoint x="299" y="150" />
            </Array>
          </mxGeometry>
        </mxCell>
        <mxCell id="HGW-tUA6Mwg1vxqJW8UV-249" value="&lt;div&gt;&lt;div&gt;Create Personnel&lt;/div&gt;&lt;/div&gt;&lt;div&gt;Account&lt;/div&gt;" style="text;html=1;align=center;verticalAlign=middle;resizable=0;points=[];autosize=1;strokeColor=none;fillColor=none;perimeterSpacing=0;spacingTop=15;spacingBottom=15;fontFamily=Lucida Console;fontSize=15;" vertex="1" parent="HGW-tUA6Mwg1vxqJW8UV-246">
          <mxGeometry y="20" width="160" height="80" as="geometry" />
        </mxCell>
        <mxCell id="HGW-tUA6Mwg1vxqJW8UV-250" style="edgeStyle=orthogonalEdgeStyle;rounded=0;orthogonalLoop=1;jettySize=auto;html=1;" edge="1" parent="HGW-tUA6Mwg1vxqJW8UV-246">
          <mxGeometry relative="1" as="geometry">
            <mxPoint x="311.0199999999995" y="466" as="targetPoint" />
            <mxPoint x="91.94999999999982" y="396" as="sourcePoint" />
            <Array as="points">
              <mxPoint x="91.94999999999982" y="446" />
              <mxPoint x="310.9499999999998" y="446" />
            </Array>
          </mxGeometry>
        </mxCell>
        <mxCell id="HGW-tUA6Mwg1vxqJW8UV-251" style="edgeStyle=orthogonalEdgeStyle;rounded=0;orthogonalLoop=1;jettySize=auto;html=1;" edge="1" parent="HGW-tUA6Mwg1vxqJW8UV-246">
          <mxGeometry relative="1" as="geometry">
            <mxPoint x="350.1699999999996" y="338" as="targetPoint" />
            <mxPoint x="171.0999999999999" y="338" as="sourcePoint" />
          </mxGeometry>
        </mxCell>
        <mxCell id="HGW-tUA6Mwg1vxqJW8UV-252" style="edgeStyle=orthogonalEdgeStyle;rounded=0;orthogonalLoop=1;jettySize=auto;html=1;exitX=1;exitY=0.5;exitDx=0;exitDy=0;" edge="1" parent="1" source="HGW-tUA6Mwg1vxqJW8UV-253">
          <mxGeometry relative="1" as="geometry">
            <mxPoint x="1496" y="-656.7142857142858" as="targetPoint" />
          </mxGeometry>
        </mxCell>
        <mxCell id="HGW-tUA6Mwg1vxqJW8UV-253" value="ChurchHead" style="html=1;dashed=0;whiteSpace=wrap;fontSize=15;fontFamily=Lucida Console;" vertex="1" parent="1">
          <mxGeometry x="1186" y="-682" width="137.15" height="50" as="geometry" />
        </mxCell>
        <mxCell id="HGW-tUA6Mwg1vxqJW8UV-254" style="edgeStyle=orthogonalEdgeStyle;rounded=0;orthogonalLoop=1;jettySize=auto;html=1;fontSize=15;fontFamily=Lucida Console;" edge="1" parent="1">
          <mxGeometry relative="1" as="geometry">
            <mxPoint x="1563.6599999999999" y="-592" as="targetPoint" />
            <mxPoint x="1443.6599999999999" y="-542" as="sourcePoint" />
            <Array as="points">
              <mxPoint x="1563.6599999999999" y="-542" />
            </Array>
          </mxGeometry>
        </mxCell>
        <mxCell id="HGW-tUA6Mwg1vxqJW8UV-255" value="" style="endArrow=none;html=1;rounded=0;fontSize=12;startSize=8;endSize=8;curved=1;" edge="1" parent="1">
          <mxGeometry width="50" height="50" relative="1" as="geometry">
            <mxPoint x="1336.19" y="-533" as="sourcePoint" />
            <mxPoint x="1336.19" y="-563" as="targetPoint" />
          </mxGeometry>
        </mxCell>
        <mxCell id="HGW-tUA6Mwg1vxqJW8UV-256" value="&lt;font&gt;Semester Id&lt;/font&gt;" style="text;html=1;align=center;verticalAlign=middle;resizable=0;points=[];autosize=1;strokeColor=none;fillColor=none;fontSize=15;fontFamily=Lucida Console;" vertex="1" parent="1">
          <mxGeometry x="1446.06" y="-568" width="120" height="30" as="geometry" />
        </mxCell>
        <mxCell id="HGW-tUA6Mwg1vxqJW8UV-257" value="" style="html=1;dashed=0;whiteSpace=wrap;shape=partialRectangle;right=0;" vertex="1" parent="1">
          <mxGeometry x="1280.94" y="-563" width="144.5" height="30" as="geometry" />
        </mxCell>
        <mxCell id="HGW-tUA6Mwg1vxqJW8UV-258" value="&lt;font face=&quot;Lucida Console&quot;&gt;DB1&amp;nbsp; Semester&lt;/font&gt;" style="text;html=1;align=center;verticalAlign=middle;resizable=0;points=[];autosize=1;strokeColor=none;fillColor=none;fontSize=16;" vertex="1" parent="1">
          <mxGeometry x="1280.94" y="-563" width="150" height="30" as="geometry" />
        </mxCell>
        <mxCell id="HGW-tUA6Mwg1vxqJW8UV-259" value="DB9" style="html=1;dashed=0;whiteSpace=wrap;shape=mxgraph.dfd.dataStoreID;align=left;spacingLeft=3;points=[[0,0],[0.5,0],[1,0],[0,0.5],[1,0.5],[0,1],[0.5,1],[1,1]];fontSize=15;fontFamily=Lucida Console;" vertex="1" parent="1">
          <mxGeometry x="1857.25" y="-705" width="100" height="30" as="geometry" />
        </mxCell>
        <mxCell id="HGW-tUA6Mwg1vxqJW8UV-260" value="Users" style="text;html=1;align=center;verticalAlign=middle;resizable=0;points=[];autosize=1;strokeColor=none;fillColor=none;fontSize=15;fontFamily=Lucida Console;" vertex="1" parent="1">
          <mxGeometry x="1887.25" y="-705" width="70" height="30" as="geometry" />
        </mxCell>
        <mxCell id="HGW-tUA6Mwg1vxqJW8UV-261" value="Church Personnel" style="html=1;dashed=0;whiteSpace=wrap;fontSize=15;fontFamily=Lucida Console;" vertex="1" parent="1">
          <mxGeometry x="1737.58" y="-522" width="156.85" height="50" as="geometry" />
        </mxCell>
        <mxCell id="HGW-tUA6Mwg1vxqJW8UV-262" value="" style="html=1;dashed=0;whiteSpace=wrap;shape=partialRectangle;right=0;" vertex="1" parent="1">
          <mxGeometry x="1858.33" y="-654" width="244.82" height="30" as="geometry" />
        </mxCell>
        <mxCell id="HGW-tUA6Mwg1vxqJW8UV-263" value="" style="endArrow=none;html=1;rounded=0;fontSize=12;startSize=8;endSize=8;curved=1;" edge="1" parent="1">
          <mxGeometry width="50" height="50" relative="1" as="geometry">
            <mxPoint x="1913.58" y="-624" as="sourcePoint" />
            <mxPoint x="1913.58" y="-654" as="targetPoint" />
          </mxGeometry>
        </mxCell>
        <mxCell id="HGW-tUA6Mwg1vxqJW8UV-264" value="&lt;font face=&quot;Lucida Console&quot;&gt;DB17&amp;nbsp; Church Personnel Info&lt;/font&gt;" style="text;html=1;align=center;verticalAlign=middle;resizable=0;points=[];autosize=1;strokeColor=none;fillColor=none;fontSize=16;" vertex="1" parent="1">
          <mxGeometry x="1854" y="-652" width="280" height="30" as="geometry" />
        </mxCell>
        <mxCell id="HGW-tUA6Mwg1vxqJW8UV-265" value="&lt;font&gt;User Id&lt;/font&gt;" style="text;html=1;align=center;verticalAlign=middle;resizable=0;points=[];autosize=1;strokeColor=none;fillColor=none;fontSize=15;fontFamily=Lucida Console;" vertex="1" parent="1">
          <mxGeometry x="1696.8600000000001" y="-668" width="90" height="30" as="geometry" />
        </mxCell>
        <mxCell id="HGW-tUA6Mwg1vxqJW8UV-266" style="edgeStyle=orthogonalEdgeStyle;rounded=0;orthogonalLoop=1;jettySize=auto;html=1;" edge="1" parent="1">
          <mxGeometry relative="1" as="geometry">
            <mxPoint x="1846" y="-692" as="targetPoint" />
            <mxPoint x="1666.9300000000003" y="-692" as="sourcePoint" />
          </mxGeometry>
        </mxCell>
        <mxCell id="HGW-tUA6Mwg1vxqJW8UV-267" value="&lt;font&gt;Account Credentials&lt;/font&gt;" style="text;html=1;align=center;verticalAlign=middle;resizable=0;points=[];autosize=1;strokeColor=none;fillColor=none;fontSize=15;fontFamily=Lucida Console;" vertex="1" parent="1">
          <mxGeometry x="1654" y="-720" width="200" height="30" as="geometry" />
        </mxCell>
        <mxCell id="HGW-tUA6Mwg1vxqJW8UV-268" value="&lt;font&gt;Personnel Info&lt;/font&gt;" style="text;html=1;align=center;verticalAlign=middle;resizable=0;points=[];autosize=1;strokeColor=none;fillColor=none;fontSize=15;fontFamily=Lucida Console;" vertex="1" parent="1">
          <mxGeometry x="1334.9299999999998" y="-682" width="150" height="30" as="geometry" />
        </mxCell>
        <mxCell id="HGW-tUA6Mwg1vxqJW8UV-269" style="edgeStyle=orthogonalEdgeStyle;rounded=0;orthogonalLoop=1;jettySize=auto;html=1;exitX=1;exitY=0.5;exitDx=0;exitDy=0;" edge="1" parent="1">
          <mxGeometry relative="1" as="geometry">
            <mxPoint x="1847.75" y="-612.7142857142858" as="targetPoint" />
            <mxPoint x="1674.75" y="-613" as="sourcePoint" />
          </mxGeometry>
        </mxCell>
        <mxCell id="HGW-tUA6Mwg1vxqJW8UV-270" value="&lt;font&gt;Personnel Info&lt;/font&gt;" style="text;html=1;align=center;verticalAlign=middle;resizable=0;points=[];autosize=1;strokeColor=none;fillColor=none;fontSize=15;fontFamily=Lucida Console;" vertex="1" parent="1">
          <mxGeometry x="1686.6799999999998" y="-638" width="150" height="30" as="geometry" />
        </mxCell>
        <mxCell id="HGW-tUA6Mwg1vxqJW8UV-271" value="&lt;font&gt;Account Credentials&lt;/font&gt;" style="text;html=1;align=center;verticalAlign=middle;resizable=0;points=[];autosize=1;strokeColor=none;fillColor=none;fontSize=15;fontFamily=Lucida Console;" vertex="1" parent="1">
          <mxGeometry x="1594.75" y="-578" width="200" height="30" as="geometry" />
        </mxCell>
        <mxCell id="HGW-tUA6Mwg1vxqJW8UV-272" value="13.0" style="swimlane;fontStyle=0;childLayout=stackLayout;horizontal=1;startSize=20;fillColor=#ffffff;horizontalStack=0;resizeParent=1;resizeParentMax=0;resizeLast=0;collapsible=0;marginBottom=0;swimlaneFillColor=#ffffff;rounded=1;fontSize=15;fontFamily=Lucida Console;" vertex="1" parent="1">
          <mxGeometry x="1504.5600000000004" y="-420" width="170" height="100" as="geometry" />
        </mxCell>
        <mxCell id="HGW-tUA6Mwg1vxqJW8UV-273" value="&lt;div&gt;&lt;div&gt;Create Monitoring&lt;/div&gt;&lt;/div&gt;&lt;div&gt;Account&lt;/div&gt;" style="text;html=1;align=center;verticalAlign=middle;resizable=0;points=[];autosize=1;strokeColor=none;fillColor=none;perimeterSpacing=0;spacingTop=15;spacingBottom=15;fontFamily=Lucida Console;fontSize=15;" vertex="1" parent="HGW-tUA6Mwg1vxqJW8UV-272">
          <mxGeometry y="20" width="170" height="80" as="geometry" />
        </mxCell>
        <mxCell id="HGW-tUA6Mwg1vxqJW8UV-274" value="Scholar Admin" style="html=1;dashed=0;whiteSpace=wrap;fontSize=15;fontFamily=Lucida Console;" vertex="1" parent="1">
          <mxGeometry x="1123" y="-395" width="137.15" height="50" as="geometry" />
        </mxCell>
        <mxCell id="HGW-tUA6Mwg1vxqJW8UV-275" value="Monitoring Personnel&amp;nbsp;&lt;div&gt;Info&lt;/div&gt;" style="text;html=1;align=center;verticalAlign=middle;resizable=0;points=[];autosize=1;strokeColor=none;fillColor=none;fontSize=15;fontFamily=Lucida Console;" vertex="1" parent="1">
          <mxGeometry x="1283.5" y="-414" width="210" height="50" as="geometry" />
        </mxCell>
        <mxCell id="HGW-tUA6Mwg1vxqJW8UV-276" style="edgeStyle=orthogonalEdgeStyle;rounded=0;orthogonalLoop=1;jettySize=auto;html=1;" edge="1" parent="1">
          <mxGeometry relative="1" as="geometry">
            <mxPoint x="1483.6200000000008" y="-365" as="targetPoint" />
            <mxPoint x="1262.3700000000008" y="-365" as="sourcePoint" />
            <Array as="points">
              <mxPoint x="1262.6200000000008" y="-365" />
            </Array>
          </mxGeometry>
        </mxCell>
        <mxCell id="HGW-tUA6Mwg1vxqJW8UV-277" style="edgeStyle=orthogonalEdgeStyle;rounded=0;orthogonalLoop=1;jettySize=auto;html=1;fontSize=15;fontFamily=Lucida Console;" edge="1" parent="1">
          <mxGeometry relative="1" as="geometry">
            <mxPoint x="1564.1600000000008" y="-304" as="targetPoint" />
            <mxPoint x="1444.1600000000008" y="-254" as="sourcePoint" />
            <Array as="points">
              <mxPoint x="1564.1600000000008" y="-254" />
            </Array>
          </mxGeometry>
        </mxCell>
        <mxCell id="HGW-tUA6Mwg1vxqJW8UV-278" value="&lt;font&gt;Semester Id&lt;/font&gt;" style="text;html=1;align=center;verticalAlign=middle;resizable=0;points=[];autosize=1;strokeColor=none;fillColor=none;fontSize=15;fontFamily=Lucida Console;" vertex="1" parent="1">
          <mxGeometry x="1446.5600000000004" y="-280" width="120" height="30" as="geometry" />
        </mxCell>
        <mxCell id="HGW-tUA6Mwg1vxqJW8UV-279" value="" style="html=1;dashed=0;whiteSpace=wrap;shape=partialRectangle;right=0;" vertex="1" parent="1">
          <mxGeometry x="1281.4400000000005" y="-275" width="144.5" height="30" as="geometry" />
        </mxCell>
        <mxCell id="HGW-tUA6Mwg1vxqJW8UV-280" value="" style="endArrow=none;html=1;rounded=0;fontSize=12;startSize=8;endSize=8;curved=1;" edge="1" parent="1">
          <mxGeometry width="50" height="50" relative="1" as="geometry">
            <mxPoint x="1336.6900000000005" y="-245" as="sourcePoint" />
            <mxPoint x="1336.6900000000005" y="-275" as="targetPoint" />
          </mxGeometry>
        </mxCell>
        <mxCell id="HGW-tUA6Mwg1vxqJW8UV-281" value="&lt;font face=&quot;Lucida Console&quot;&gt;DB1&amp;nbsp; Semester&lt;/font&gt;" style="text;html=1;align=center;verticalAlign=middle;resizable=0;points=[];autosize=1;strokeColor=none;fillColor=none;fontSize=16;" vertex="1" parent="1">
          <mxGeometry x="1281.4400000000005" y="-275" width="150" height="30" as="geometry" />
        </mxCell>
        <mxCell id="HGW-tUA6Mwg1vxqJW8UV-282" value="DB9" style="html=1;dashed=0;whiteSpace=wrap;shape=mxgraph.dfd.dataStoreID;align=left;spacingLeft=3;points=[[0,0],[0.5,0],[1,0],[0,0.5],[1,0.5],[0,1],[0.5,1],[1,1]];fontSize=15;fontFamily=Lucida Console;" vertex="1" parent="1">
          <mxGeometry x="1859.539999999999" y="-410" width="100" height="30" as="geometry" />
        </mxCell>
        <mxCell id="HGW-tUA6Mwg1vxqJW8UV-283" value="Users" style="text;html=1;align=center;verticalAlign=middle;resizable=0;points=[];autosize=1;strokeColor=none;fillColor=none;fontSize=15;fontFamily=Lucida Console;" vertex="1" parent="1">
          <mxGeometry x="1889.539999999999" y="-410" width="70" height="30" as="geometry" />
        </mxCell>
        <mxCell id="HGW-tUA6Mwg1vxqJW8UV-284" value="Monitoring Personnel" style="html=1;dashed=0;whiteSpace=wrap;fontSize=15;fontFamily=Lucida Console;" vertex="1" parent="1">
          <mxGeometry x="1740.3499999999995" y="-236" width="159.28" height="50" as="geometry" />
        </mxCell>
        <mxCell id="HGW-tUA6Mwg1vxqJW8UV-285" value="" style="html=1;dashed=0;whiteSpace=wrap;shape=partialRectangle;right=0;" vertex="1" parent="1">
          <mxGeometry x="1863.0999999999995" y="-370" width="221.51" height="30" as="geometry" />
        </mxCell>
        <mxCell id="HGW-tUA6Mwg1vxqJW8UV-286" value="" style="endArrow=none;html=1;rounded=0;fontSize=12;startSize=8;endSize=8;curved=1;" edge="1" parent="1">
          <mxGeometry width="50" height="50" relative="1" as="geometry">
            <mxPoint x="1918.3499999999995" y="-340" as="sourcePoint" />
            <mxPoint x="1918.3499999999995" y="-370" as="targetPoint" />
          </mxGeometry>
        </mxCell>
        <mxCell id="HGW-tUA6Mwg1vxqJW8UV-287" value="&lt;font face=&quot;Lucida Console&quot;&gt;DB13&amp;nbsp; Monitoring Info&lt;/font&gt;" style="text;html=1;align=center;verticalAlign=middle;resizable=0;points=[];autosize=1;strokeColor=none;fillColor=none;fontSize=16;" vertex="1" parent="1">
          <mxGeometry x="1858.8499999999995" y="-370" width="230" height="30" as="geometry" />
        </mxCell>
        <mxCell id="HGW-tUA6Mwg1vxqJW8UV-288" value="&lt;font&gt;User Id&lt;/font&gt;" style="text;html=1;align=center;verticalAlign=middle;resizable=0;points=[];autosize=1;strokeColor=none;fillColor=none;fontSize=15;fontFamily=Lucida Console;" vertex="1" parent="1">
          <mxGeometry x="1707.96" y="-390" width="90" height="30" as="geometry" />
        </mxCell>
        <mxCell id="HGW-tUA6Mwg1vxqJW8UV-289" style="edgeStyle=orthogonalEdgeStyle;rounded=0;orthogonalLoop=1;jettySize=auto;html=1;" edge="1" parent="1">
          <mxGeometry relative="1" as="geometry">
            <mxPoint x="1857.9499999999998" y="-396" as="targetPoint" />
            <mxPoint x="1678.88" y="-396" as="sourcePoint" />
          </mxGeometry>
        </mxCell>
        <mxCell id="HGW-tUA6Mwg1vxqJW8UV-290" value="&lt;font&gt;Account Credentials&lt;/font&gt;" style="text;html=1;align=center;verticalAlign=middle;resizable=0;points=[];autosize=1;strokeColor=none;fillColor=none;fontSize=15;fontFamily=Lucida Console;" vertex="1" parent="1">
          <mxGeometry x="1665.9499999999998" y="-424" width="200" height="30" as="geometry" />
        </mxCell>
        <mxCell id="HGW-tUA6Mwg1vxqJW8UV-291" style="edgeStyle=orthogonalEdgeStyle;rounded=0;orthogonalLoop=1;jettySize=auto;html=1;exitX=1;exitY=0.5;exitDx=0;exitDy=0;" edge="1" parent="1">
          <mxGeometry relative="1" as="geometry">
            <mxPoint x="1858.8499999999995" y="-334.7142857142858" as="targetPoint" />
            <mxPoint x="1685.8499999999995" y="-335" as="sourcePoint" />
          </mxGeometry>
        </mxCell>
        <mxCell id="HGW-tUA6Mwg1vxqJW8UV-292" value="&lt;font&gt;Personnel Info&lt;/font&gt;" style="text;html=1;align=center;verticalAlign=middle;resizable=0;points=[];autosize=1;strokeColor=none;fillColor=none;fontSize=15;fontFamily=Lucida Console;" vertex="1" parent="1">
          <mxGeometry x="1697.7799999999997" y="-360" width="150" height="30" as="geometry" />
        </mxCell>
        <mxCell id="HGW-tUA6Mwg1vxqJW8UV-293" value="&lt;font&gt;Account Credentials&lt;/font&gt;" style="text;html=1;align=center;verticalAlign=middle;resizable=0;points=[];autosize=1;strokeColor=none;fillColor=none;fontSize=15;fontFamily=Lucida Console;" vertex="1" parent="1">
          <mxGeometry x="1606.6999999999998" y="-282" width="200" height="30" as="geometry" />
        </mxCell>
        <mxCell id="HGW-tUA6Mwg1vxqJW8UV-294" value="14.0" style="swimlane;fontStyle=0;childLayout=stackLayout;horizontal=1;startSize=20;fillColor=#ffffff;horizontalStack=0;resizeParent=1;resizeParentMax=0;resizeLast=0;collapsible=0;marginBottom=0;swimlaneFillColor=#ffffff;rounded=1;fontSize=15;fontFamily=Lucida Console;" vertex="1" parent="1">
          <mxGeometry x="2637.95" y="-1605" width="140" height="80" as="geometry" />
        </mxCell>
        <mxCell id="HGW-tUA6Mwg1vxqJW8UV-295" value="Scholar Login" style="text;html=1;align=center;verticalAlign=middle;resizable=0;points=[];autosize=1;strokeColor=none;fillColor=none;perimeterSpacing=0;spacingTop=15;spacingBottom=15;fontFamily=Lucida Console;fontSize=15;" vertex="1" parent="HGW-tUA6Mwg1vxqJW8UV-294">
          <mxGeometry y="20" width="140" height="60" as="geometry" />
        </mxCell>
        <mxCell id="HGW-tUA6Mwg1vxqJW8UV-296" value="Scholar" style="html=1;dashed=0;whiteSpace=wrap;fontSize=15;fontFamily=Lucida Console;" vertex="1" parent="1">
          <mxGeometry x="2300.24" y="-1595" width="127.5" height="50" as="geometry" />
        </mxCell>
        <mxCell id="HGW-tUA6Mwg1vxqJW8UV-297" value="" style="html=1;dashed=0;whiteSpace=wrap;shape=partialRectangle;right=0;fontSize=15;fontFamily=Lucida Console;direction=east;" vertex="1" parent="1">
          <mxGeometry x="2297.37" y="-1493.5" width="204.5" height="30" as="geometry" />
        </mxCell>
        <mxCell id="HGW-tUA6Mwg1vxqJW8UV-298" value="" style="endArrow=none;html=1;rounded=0;fontSize=15;startSize=8;endSize=8;curved=1;fontFamily=Lucida Console;" edge="1" parent="1">
          <mxGeometry width="50" height="50" relative="1" as="geometry">
            <mxPoint x="2352.1799999999994" y="-1464.5" as="sourcePoint" />
            <mxPoint x="2352.1799999999994" y="-1494.5" as="targetPoint" />
          </mxGeometry>
        </mxCell>
        <mxCell id="HGW-tUA6Mwg1vxqJW8UV-299" value="&lt;font&gt;DB7&amp;nbsp; Fellowship Logs&lt;/font&gt;" style="text;html=1;align=center;verticalAlign=middle;resizable=0;points=[];autosize=1;strokeColor=none;fillColor=none;fontSize=15;fontFamily=Lucida Console;" vertex="1" parent="1">
          <mxGeometry x="2299.62" y="-1492" width="200" height="30" as="geometry" />
        </mxCell>
        <mxCell id="HGW-tUA6Mwg1vxqJW8UV-300" value="" style="html=1;dashed=0;whiteSpace=wrap;shape=partialRectangle;right=0;fontSize=15;fontFamily=Lucida Console;" vertex="1" parent="1">
          <mxGeometry x="2850.4299999999994" y="-1439" width="185.12" height="30" as="geometry" />
        </mxCell>
        <mxCell id="HGW-tUA6Mwg1vxqJW8UV-301" value="" style="endArrow=none;html=1;rounded=0;fontSize=15;startSize=8;endSize=8;curved=1;fontFamily=Lucida Console;" edge="1" parent="1">
          <mxGeometry width="50" height="50" relative="1" as="geometry">
            <mxPoint x="2905.239999999999" y="-1410" as="sourcePoint" />
            <mxPoint x="2905.239999999999" y="-1440" as="targetPoint" />
          </mxGeometry>
        </mxCell>
        <mxCell id="HGW-tUA6Mwg1vxqJW8UV-302" value="&lt;font&gt;DB12&amp;nbsp; Scholar Info&lt;/font&gt;" style="text;html=1;align=center;verticalAlign=middle;resizable=0;points=[];autosize=1;strokeColor=none;fillColor=none;fontSize=15;fontFamily=Lucida Console;" vertex="1" parent="1">
          <mxGeometry x="2845.55" y="-1439" width="190" height="30" as="geometry" />
        </mxCell>
        <mxCell id="HGW-tUA6Mwg1vxqJW8UV-303" style="edgeStyle=orthogonalEdgeStyle;rounded=0;orthogonalLoop=1;jettySize=auto;html=1;" edge="1" parent="1" source="HGW-tUA6Mwg1vxqJW8UV-304">
          <mxGeometry relative="1" as="geometry">
            <mxPoint x="2790.99" y="-1560" as="targetPoint" />
            <Array as="points">
              <mxPoint x="3020.99" y="-1560" />
            </Array>
          </mxGeometry>
        </mxCell>
        <mxCell id="HGW-tUA6Mwg1vxqJW8UV-304" value="Church Personnel" style="html=1;dashed=0;whiteSpace=wrap;fontSize=15;fontFamily=Lucida Console;" vertex="1" parent="1">
          <mxGeometry x="2938.09" y="-1630" width="164.91" height="50" as="geometry" />
        </mxCell>
        <mxCell id="HGW-tUA6Mwg1vxqJW8UV-305" value="DB9" style="html=1;dashed=0;whiteSpace=wrap;shape=mxgraph.dfd.dataStoreID;align=left;spacingLeft=3;points=[[0,0],[0.5,0],[1,0],[0,0.5],[1,0.5],[0,1],[0.5,1],[1,1]];fontSize=15;fontFamily=Lucida Console;" vertex="1" parent="1">
          <mxGeometry x="2422.05" y="-1415" width="100" height="30" as="geometry" />
        </mxCell>
        <mxCell id="HGW-tUA6Mwg1vxqJW8UV-306" value="Users" style="text;html=1;align=center;verticalAlign=middle;resizable=0;points=[];autosize=1;strokeColor=none;fillColor=none;fontSize=15;fontFamily=Lucida Console;" vertex="1" parent="1">
          <mxGeometry x="2452.05" y="-1415" width="70" height="30" as="geometry" />
        </mxCell>
        <mxCell id="HGW-tUA6Mwg1vxqJW8UV-307" style="edgeStyle=orthogonalEdgeStyle;rounded=0;orthogonalLoop=1;jettySize=auto;html=1;fontFamily=Lucida Console;fontSize=15;" edge="1" parent="1">
          <mxGeometry relative="1" as="geometry">
            <mxPoint x="2633.4299999999994" y="-1571" as="targetPoint" />
            <mxPoint x="2433.4299999999994" y="-1571" as="sourcePoint" />
            <Array as="points">
              <mxPoint x="2483.4299999999994" y="-1571" />
              <mxPoint x="2483.4299999999994" y="-1571" />
            </Array>
          </mxGeometry>
        </mxCell>
        <mxCell id="HGW-tUA6Mwg1vxqJW8UV-308" value="&lt;span&gt;username &amp;amp; password&lt;/span&gt;" style="text;html=1;align=center;verticalAlign=middle;resizable=0;points=[];autosize=1;strokeColor=none;fillColor=none;fontFamily=Lucida Console;fontSize=15;" vertex="1" parent="1">
          <mxGeometry x="2425.1799999999994" y="-1594" width="200" height="30" as="geometry" />
        </mxCell>
        <mxCell id="HGW-tUA6Mwg1vxqJW8UV-309" style="edgeStyle=orthogonalEdgeStyle;rounded=0;orthogonalLoop=1;jettySize=auto;html=1;fontFamily=Lucida Console;fontSize=15;" edge="1" parent="1">
          <mxGeometry relative="1" as="geometry">
            <mxPoint x="2720.99" y="-1520" as="targetPoint" />
            <mxPoint x="2524.4900000000007" y="-1400.29" as="sourcePoint" />
            <Array as="points">
              <mxPoint x="2574.4900000000007" y="-1400.29" />
              <mxPoint x="2574.4900000000007" y="-1400.29" />
            </Array>
          </mxGeometry>
        </mxCell>
        <mxCell id="HGW-tUA6Mwg1vxqJW8UV-310" value="&lt;span&gt;Fellowship Attendance&lt;/span&gt;" style="text;html=1;align=center;verticalAlign=middle;resizable=0;points=[];autosize=1;strokeColor=none;fillColor=none;fontFamily=Lucida Console;fontSize=15;" vertex="1" parent="1">
          <mxGeometry x="2505.05" y="-1507" width="210" height="30" as="geometry" />
        </mxCell>
        <mxCell id="HGW-tUA6Mwg1vxqJW8UV-311" style="edgeStyle=orthogonalEdgeStyle;rounded=0;orthogonalLoop=1;jettySize=auto;html=1;entryX=1;entryY=0.5;entryDx=0;entryDy=0;" edge="1" parent="1" source="HGW-tUA6Mwg1vxqJW8UV-295" target="HGW-tUA6Mwg1vxqJW8UV-297">
          <mxGeometry relative="1" as="geometry">
            <Array as="points">
              <mxPoint x="2707.99" y="-1478" />
              <mxPoint x="2501.99" y="-1478" />
            </Array>
          </mxGeometry>
        </mxCell>
        <mxCell id="HGW-tUA6Mwg1vxqJW8UV-312" value="&lt;span&gt;QR Code&lt;/span&gt;" style="text;html=1;align=center;verticalAlign=middle;resizable=0;points=[];autosize=1;strokeColor=none;fillColor=none;fontFamily=Lucida Console;fontSize=15;" vertex="1" parent="1">
          <mxGeometry x="2777.95" y="-1385" width="90" height="30" as="geometry" />
        </mxCell>
        <mxCell id="HGW-tUA6Mwg1vxqJW8UV-313" value="User Id" style="text;html=1;align=center;verticalAlign=middle;resizable=0;points=[];autosize=1;strokeColor=none;fillColor=none;fontFamily=Lucida Console;fontSize=15;" vertex="1" parent="1">
          <mxGeometry x="2578.55" y="-1422" width="90" height="30" as="geometry" />
        </mxCell>
        <mxCell id="HGW-tUA6Mwg1vxqJW8UV-314" style="edgeStyle=orthogonalEdgeStyle;rounded=0;orthogonalLoop=1;jettySize=auto;html=1;fontFamily=Lucida Console;fontSize=15;" edge="1" parent="1">
          <mxGeometry relative="1" as="geometry">
            <mxPoint x="2740.99" y="-1520" as="targetPoint" />
            <mxPoint x="2910.99" y="-1400" as="sourcePoint" />
            <Array as="points">
              <mxPoint x="2910.99" y="-1360" />
              <mxPoint x="2740.99" y="-1360" />
            </Array>
          </mxGeometry>
        </mxCell>
        <mxCell id="HGW-tUA6Mwg1vxqJW8UV-315" style="edgeStyle=orthogonalEdgeStyle;rounded=0;orthogonalLoop=1;jettySize=auto;html=1;" edge="1" parent="1">
          <mxGeometry relative="1" as="geometry">
            <mxPoint x="2930.99" y="-1460" as="targetPoint" />
            <mxPoint x="2790.99" y="-1530" as="sourcePoint" />
            <Array as="points">
              <mxPoint x="2930.99" y="-1530" />
            </Array>
          </mxGeometry>
        </mxCell>
        <mxCell id="HGW-tUA6Mwg1vxqJW8UV-316" style="edgeStyle=orthogonalEdgeStyle;rounded=0;orthogonalLoop=1;jettySize=auto;html=1;" edge="1" parent="1">
          <mxGeometry relative="1" as="geometry">
            <mxPoint x="2927.9299999999994" y="-1601.2" as="targetPoint" />
            <mxPoint x="2793.4299999999994" y="-1601.2" as="sourcePoint" />
          </mxGeometry>
        </mxCell>
        <mxCell id="HGW-tUA6Mwg1vxqJW8UV-317" value="User Id" style="text;html=1;align=center;verticalAlign=middle;resizable=0;points=[];autosize=1;strokeColor=none;fillColor=none;fontFamily=Lucida Console;fontSize=15;" vertex="1" parent="1">
          <mxGeometry x="2798.4300000000003" y="-1556" width="90" height="30" as="geometry" />
        </mxCell>
        <mxCell id="HGW-tUA6Mwg1vxqJW8UV-318" value="&lt;span&gt;Scholar Info&lt;/span&gt;" style="text;html=1;align=center;verticalAlign=middle;resizable=0;points=[];autosize=1;strokeColor=none;fillColor=none;fontFamily=Lucida Console;fontSize=15;" vertex="1" parent="1">
          <mxGeometry x="2781.99" y="-1630" width="130" height="30" as="geometry" />
        </mxCell>
        <mxCell id="HGW-tUA6Mwg1vxqJW8UV-319" value="&lt;span&gt;Fellowship Attendance&lt;/span&gt;" style="text;html=1;align=center;verticalAlign=middle;resizable=0;points=[];autosize=1;strokeColor=none;fillColor=none;fontFamily=Lucida Console;fontSize=15;" vertex="1" parent="1">
          <mxGeometry x="2801.3" y="-1585" width="210" height="30" as="geometry" />
        </mxCell>
        <mxCell id="HGW-tUA6Mwg1vxqJW8UV-320" value="15.0" style="swimlane;fontStyle=0;childLayout=stackLayout;horizontal=1;startSize=20;fillColor=#ffffff;horizontalStack=0;resizeParent=1;resizeParentMax=0;resizeLast=0;collapsible=0;marginBottom=0;swimlaneFillColor=#ffffff;rounded=1;fontSize=15;fontFamily=Lucida Console;" vertex="1" parent="1">
          <mxGeometry x="2673.91" y="-1221" width="140" height="80" as="geometry" />
        </mxCell>
        <mxCell id="HGW-tUA6Mwg1vxqJW8UV-321" value="Scholar Login" style="text;html=1;align=center;verticalAlign=middle;resizable=0;points=[];autosize=1;strokeColor=none;fillColor=none;perimeterSpacing=0;spacingTop=15;spacingBottom=15;fontFamily=Lucida Console;fontSize=15;" vertex="1" parent="HGW-tUA6Mwg1vxqJW8UV-320">
          <mxGeometry y="20" width="140" height="60" as="geometry" />
        </mxCell>
        <mxCell id="HGW-tUA6Mwg1vxqJW8UV-322" value="Scholar" style="html=1;dashed=0;whiteSpace=wrap;fontSize=15;fontFamily=Lucida Console;" vertex="1" parent="1">
          <mxGeometry x="2336.2" y="-1211" width="127.5" height="50" as="geometry" />
        </mxCell>
        <mxCell id="HGW-tUA6Mwg1vxqJW8UV-323" value="" style="html=1;dashed=0;whiteSpace=wrap;shape=partialRectangle;right=0;fontSize=15;fontFamily=Lucida Console;direction=east;" vertex="1" parent="1">
          <mxGeometry x="2333.33" y="-1109.5" width="204.5" height="30" as="geometry" />
        </mxCell>
        <mxCell id="HGW-tUA6Mwg1vxqJW8UV-324" value="" style="endArrow=none;html=1;rounded=0;fontSize=15;startSize=8;endSize=8;curved=1;fontFamily=Lucida Console;" edge="1" parent="1">
          <mxGeometry width="50" height="50" relative="1" as="geometry">
            <mxPoint x="2388.1399999999994" y="-1080.5" as="sourcePoint" />
            <mxPoint x="2388.1399999999994" y="-1110.5" as="targetPoint" />
          </mxGeometry>
        </mxCell>
        <mxCell id="HGW-tUA6Mwg1vxqJW8UV-325" value="&lt;font&gt;DB6&amp;nbsp; Gratis Logs&lt;/font&gt;" style="text;html=1;align=center;verticalAlign=middle;resizable=0;points=[];autosize=1;strokeColor=none;fillColor=none;fontSize=15;fontFamily=Lucida Console;" vertex="1" parent="1">
          <mxGeometry x="2335.4799999999996" y="-1109.5" width="170" height="30" as="geometry" />
        </mxCell>
        <mxCell id="HGW-tUA6Mwg1vxqJW8UV-326" value="" style="html=1;dashed=0;whiteSpace=wrap;shape=partialRectangle;right=0;fontSize=15;fontFamily=Lucida Console;" vertex="1" parent="1">
          <mxGeometry x="2886.3899999999994" y="-1055" width="185.12" height="30" as="geometry" />
        </mxCell>
        <mxCell id="HGW-tUA6Mwg1vxqJW8UV-327" value="" style="endArrow=none;html=1;rounded=0;fontSize=15;startSize=8;endSize=8;curved=1;fontFamily=Lucida Console;" edge="1" parent="1">
          <mxGeometry width="50" height="50" relative="1" as="geometry">
            <mxPoint x="2941.199999999999" y="-1026" as="sourcePoint" />
            <mxPoint x="2941.199999999999" y="-1056" as="targetPoint" />
          </mxGeometry>
        </mxCell>
        <mxCell id="HGW-tUA6Mwg1vxqJW8UV-328" value="&lt;font&gt;DB12&amp;nbsp; Scholar Info&lt;/font&gt;" style="text;html=1;align=center;verticalAlign=middle;resizable=0;points=[];autosize=1;strokeColor=none;fillColor=none;fontSize=15;fontFamily=Lucida Console;" vertex="1" parent="1">
          <mxGeometry x="2881.51" y="-1055" width="190" height="30" as="geometry" />
        </mxCell>
        <mxCell id="HGW-tUA6Mwg1vxqJW8UV-329" style="edgeStyle=orthogonalEdgeStyle;rounded=0;orthogonalLoop=1;jettySize=auto;html=1;" edge="1" parent="1" source="HGW-tUA6Mwg1vxqJW8UV-330">
          <mxGeometry relative="1" as="geometry">
            <mxPoint x="2826.95" y="-1176" as="targetPoint" />
            <Array as="points">
              <mxPoint x="3056.95" y="-1176" />
            </Array>
          </mxGeometry>
        </mxCell>
        <mxCell id="HGW-tUA6Mwg1vxqJW8UV-330" value="Dept Personnel" style="html=1;dashed=0;whiteSpace=wrap;fontSize=15;fontFamily=Lucida Console;" vertex="1" parent="1">
          <mxGeometry x="2974.05" y="-1246" width="164.91" height="50" as="geometry" />
        </mxCell>
        <mxCell id="HGW-tUA6Mwg1vxqJW8UV-331" value="DB9" style="html=1;dashed=0;whiteSpace=wrap;shape=mxgraph.dfd.dataStoreID;align=left;spacingLeft=3;points=[[0,0],[0.5,0],[1,0],[0,0.5],[1,0.5],[0,1],[0.5,1],[1,1]];fontSize=15;fontFamily=Lucida Console;" vertex="1" parent="1">
          <mxGeometry x="2458.01" y="-1031" width="100" height="30" as="geometry" />
        </mxCell>
        <mxCell id="HGW-tUA6Mwg1vxqJW8UV-332" value="Users" style="text;html=1;align=center;verticalAlign=middle;resizable=0;points=[];autosize=1;strokeColor=none;fillColor=none;fontSize=15;fontFamily=Lucida Console;" vertex="1" parent="1">
          <mxGeometry x="2488.01" y="-1031" width="70" height="30" as="geometry" />
        </mxCell>
        <mxCell id="HGW-tUA6Mwg1vxqJW8UV-333" style="edgeStyle=orthogonalEdgeStyle;rounded=0;orthogonalLoop=1;jettySize=auto;html=1;fontFamily=Lucida Console;fontSize=15;" edge="1" parent="1">
          <mxGeometry relative="1" as="geometry">
            <mxPoint x="2669.3899999999994" y="-1187" as="targetPoint" />
            <mxPoint x="2469.3899999999994" y="-1187" as="sourcePoint" />
            <Array as="points">
              <mxPoint x="2519.3899999999994" y="-1187" />
              <mxPoint x="2519.3899999999994" y="-1187" />
            </Array>
          </mxGeometry>
        </mxCell>
        <mxCell id="HGW-tUA6Mwg1vxqJW8UV-334" value="&lt;span&gt;username &amp;amp; password&lt;/span&gt;" style="text;html=1;align=center;verticalAlign=middle;resizable=0;points=[];autosize=1;strokeColor=none;fillColor=none;fontFamily=Lucida Console;fontSize=15;" vertex="1" parent="1">
          <mxGeometry x="2461.1399999999994" y="-1210" width="200" height="30" as="geometry" />
        </mxCell>
        <mxCell id="HGW-tUA6Mwg1vxqJW8UV-335" style="edgeStyle=orthogonalEdgeStyle;rounded=0;orthogonalLoop=1;jettySize=auto;html=1;fontFamily=Lucida Console;fontSize=15;" edge="1" parent="1">
          <mxGeometry relative="1" as="geometry">
            <mxPoint x="2756.95" y="-1136" as="targetPoint" />
            <mxPoint x="2560.4500000000007" y="-1016.29" as="sourcePoint" />
            <Array as="points">
              <mxPoint x="2610.4500000000007" y="-1016.29" />
              <mxPoint x="2610.4500000000007" y="-1016.29" />
            </Array>
          </mxGeometry>
        </mxCell>
        <mxCell id="HGW-tUA6Mwg1vxqJW8UV-336" value="&lt;span&gt;Gratis Attendance&lt;/span&gt;" style="text;html=1;align=center;verticalAlign=middle;resizable=0;points=[];autosize=1;strokeColor=none;fillColor=none;fontFamily=Lucida Console;fontSize=15;" vertex="1" parent="1">
          <mxGeometry x="2556.01" y="-1123" width="180" height="30" as="geometry" />
        </mxCell>
        <mxCell id="HGW-tUA6Mwg1vxqJW8UV-337" style="edgeStyle=orthogonalEdgeStyle;rounded=0;orthogonalLoop=1;jettySize=auto;html=1;entryX=1;entryY=0.5;entryDx=0;entryDy=0;" edge="1" parent="1" source="HGW-tUA6Mwg1vxqJW8UV-321" target="HGW-tUA6Mwg1vxqJW8UV-323">
          <mxGeometry relative="1" as="geometry">
            <Array as="points">
              <mxPoint x="2743.95" y="-1094" />
              <mxPoint x="2537.95" y="-1094" />
            </Array>
          </mxGeometry>
        </mxCell>
        <mxCell id="HGW-tUA6Mwg1vxqJW8UV-338" value="&lt;span&gt;QR Code&lt;/span&gt;" style="text;html=1;align=center;verticalAlign=middle;resizable=0;points=[];autosize=1;strokeColor=none;fillColor=none;fontFamily=Lucida Console;fontSize=15;" vertex="1" parent="1">
          <mxGeometry x="2823.6499999999996" y="-1001" width="90" height="30" as="geometry" />
        </mxCell>
        <mxCell id="HGW-tUA6Mwg1vxqJW8UV-339" value="User Id" style="text;html=1;align=center;verticalAlign=middle;resizable=0;points=[];autosize=1;strokeColor=none;fillColor=none;fontFamily=Lucida Console;fontSize=15;" vertex="1" parent="1">
          <mxGeometry x="2614.51" y="-1038" width="90" height="30" as="geometry" />
        </mxCell>
        <mxCell id="HGW-tUA6Mwg1vxqJW8UV-340" style="edgeStyle=orthogonalEdgeStyle;rounded=0;orthogonalLoop=1;jettySize=auto;html=1;fontFamily=Lucida Console;fontSize=15;" edge="1" parent="1">
          <mxGeometry relative="1" as="geometry">
            <mxPoint x="2796.99" y="-1129" as="targetPoint" />
            <mxPoint x="2946.95" y="-1016" as="sourcePoint" />
            <Array as="points">
              <mxPoint x="2946.99" y="-976" />
              <mxPoint x="2796.99" y="-976" />
            </Array>
          </mxGeometry>
        </mxCell>
        <mxCell id="HGW-tUA6Mwg1vxqJW8UV-341" style="edgeStyle=orthogonalEdgeStyle;rounded=0;orthogonalLoop=1;jettySize=auto;html=1;" edge="1" parent="1">
          <mxGeometry relative="1" as="geometry">
            <mxPoint x="2966.95" y="-1076" as="targetPoint" />
            <mxPoint x="2826.95" y="-1146" as="sourcePoint" />
            <Array as="points">
              <mxPoint x="2966.95" y="-1146" />
            </Array>
          </mxGeometry>
        </mxCell>
        <mxCell id="HGW-tUA6Mwg1vxqJW8UV-342" style="edgeStyle=orthogonalEdgeStyle;rounded=0;orthogonalLoop=1;jettySize=auto;html=1;" edge="1" parent="1">
          <mxGeometry relative="1" as="geometry">
            <mxPoint x="2963.8899999999994" y="-1217.2" as="targetPoint" />
            <mxPoint x="2829.3899999999994" y="-1217.2" as="sourcePoint" />
          </mxGeometry>
        </mxCell>
        <mxCell id="HGW-tUA6Mwg1vxqJW8UV-343" value="User Id" style="text;html=1;align=center;verticalAlign=middle;resizable=0;points=[];autosize=1;strokeColor=none;fillColor=none;fontFamily=Lucida Console;fontSize=15;" vertex="1" parent="1">
          <mxGeometry x="2834.3900000000003" y="-1172" width="90" height="30" as="geometry" />
        </mxCell>
        <mxCell id="HGW-tUA6Mwg1vxqJW8UV-344" value="&lt;span&gt;Scholar Info&lt;/span&gt;" style="text;html=1;align=center;verticalAlign=middle;resizable=0;points=[];autosize=1;strokeColor=none;fillColor=none;fontFamily=Lucida Console;fontSize=15;" vertex="1" parent="1">
          <mxGeometry x="2817.95" y="-1246" width="130" height="30" as="geometry" />
        </mxCell>
        <mxCell id="HGW-tUA6Mwg1vxqJW8UV-345" value="&lt;span&gt;Gratis Attendance&lt;/span&gt;" style="text;html=1;align=center;verticalAlign=middle;resizable=0;points=[];autosize=1;strokeColor=none;fillColor=none;fontFamily=Lucida Console;fontSize=15;" vertex="1" parent="1">
          <mxGeometry x="2852.26" y="-1201" width="180" height="30" as="geometry" />
        </mxCell>
        <mxCell id="HGW-tUA6Mwg1vxqJW8UV-346" value="" style="html=1;dashed=0;whiteSpace=wrap;shape=partialRectangle;right=0;fontSize=15;fontFamily=Lucida Console;direction=east;" vertex="1" parent="1">
          <mxGeometry x="2372.5599999999995" y="-909" width="290.27" height="30" as="geometry" />
        </mxCell>
        <mxCell id="HGW-tUA6Mwg1vxqJW8UV-347" value="" style="endArrow=none;html=1;rounded=0;fontSize=15;startSize=8;endSize=8;curved=1;fontFamily=Lucida Console;" edge="1" parent="1">
          <mxGeometry width="50" height="50" relative="1" as="geometry">
            <mxPoint x="2427.369999999999" y="-880" as="sourcePoint" />
            <mxPoint x="2427.369999999999" y="-910" as="targetPoint" />
          </mxGeometry>
        </mxCell>
        <mxCell id="HGW-tUA6Mwg1vxqJW8UV-348" value="&lt;font&gt;DB28&amp;nbsp; Monitored Attendance Logs&lt;/font&gt;" style="text;html=1;align=center;verticalAlign=middle;resizable=0;points=[];autosize=1;strokeColor=none;fillColor=none;fontSize=15;fontFamily=Lucida Console;" vertex="1" parent="1">
          <mxGeometry x="2372.5600000000004" y="-909" width="300" height="30" as="geometry" />
        </mxCell>
        <mxCell id="HGW-tUA6Mwg1vxqJW8UV-349" style="edgeStyle=orthogonalEdgeStyle;rounded=0;orthogonalLoop=1;jettySize=auto;html=1;" edge="1" parent="1" source="HGW-tUA6Mwg1vxqJW8UV-350">
          <mxGeometry relative="1" as="geometry">
            <mxPoint x="2776.9900000000007" y="-1229" as="targetPoint" />
          </mxGeometry>
        </mxCell>
        <mxCell id="HGW-tUA6Mwg1vxqJW8UV-350" value="Monitoring Personnel" style="html=1;dashed=0;whiteSpace=wrap;fontSize=15;fontFamily=Lucida Console;direction=east;" vertex="1" parent="1">
          <mxGeometry x="2970.99" y="-1319" width="140" height="50" as="geometry" />
        </mxCell>
        <mxCell id="HGW-tUA6Mwg1vxqJW8UV-351" value="&lt;span&gt;Data Request&lt;/span&gt;" style="text;html=1;align=center;verticalAlign=middle;resizable=0;points=[];autosize=1;strokeColor=none;fillColor=none;fontFamily=Lucida Console;fontSize=15;" vertex="1" parent="1">
          <mxGeometry x="2817.95" y="-1319" width="130" height="30" as="geometry" />
        </mxCell>
        <mxCell id="HGW-tUA6Mwg1vxqJW8UV-352" style="edgeStyle=orthogonalEdgeStyle;rounded=0;orthogonalLoop=1;jettySize=auto;html=1;fontFamily=Lucida Console;fontSize=15;" edge="1" parent="1">
          <mxGeometry relative="1" as="geometry">
            <mxPoint x="2516.99" y="-909" as="targetPoint" />
            <mxPoint x="2776.99" y="-1129" as="sourcePoint" />
            <Array as="points">
              <mxPoint x="2776.99" y="-939" />
              <mxPoint x="2516.99" y="-939" />
            </Array>
          </mxGeometry>
        </mxCell>
        <mxCell id="HGW-tUA6Mwg1vxqJW8UV-353" value="Monitored Scholar&amp;nbsp;" style="text;html=1;align=center;verticalAlign=middle;resizable=0;points=[];autosize=1;strokeColor=none;fillColor=none;fontFamily=Lucida Console;fontSize=15;" vertex="1" parent="1">
          <mxGeometry x="2576.05" y="-964" width="190" height="30" as="geometry" />
        </mxCell>
        <mxCell id="HGW-tUA6Mwg1vxqJW8UV-354" value="16.0" style="swimlane;fontStyle=0;childLayout=stackLayout;horizontal=1;startSize=20;fillColor=#ffffff;horizontalStack=0;resizeParent=1;resizeParentMax=0;resizeLast=0;collapsible=0;marginBottom=0;swimlaneFillColor=#ffffff;rounded=1;fontSize=15;fontFamily=Lucida Console;" vertex="1" parent="1">
          <mxGeometry x="2685" y="-830" width="155" height="100" as="geometry" />
        </mxCell>
        <mxCell id="HGW-tUA6Mwg1vxqJW8UV-355" style="edgeStyle=orthogonalEdgeStyle;rounded=0;orthogonalLoop=1;jettySize=auto;html=1;" edge="1" parent="HGW-tUA6Mwg1vxqJW8UV-354">
          <mxGeometry relative="1" as="geometry">
            <mxPoint x="335" y="200" as="targetPoint" />
            <mxPoint x="115" y="110" as="sourcePoint" />
            <Array as="points">
              <mxPoint x="115" y="200" />
            </Array>
          </mxGeometry>
        </mxCell>
        <mxCell id="HGW-tUA6Mwg1vxqJW8UV-356" value="Issuance of&lt;div&gt;Certificate&lt;/div&gt;" style="text;html=1;align=center;verticalAlign=middle;resizable=0;points=[];autosize=1;strokeColor=none;fillColor=none;perimeterSpacing=0;spacingTop=15;spacingBottom=15;fontFamily=Lucida Console;fontSize=15;" vertex="1" parent="HGW-tUA6Mwg1vxqJW8UV-354">
          <mxGeometry y="20" width="155" height="80" as="geometry" />
        </mxCell>
        <mxCell id="HGW-tUA6Mwg1vxqJW8UV-357" value="Scholar Admin" style="html=1;dashed=0;whiteSpace=wrap;fontSize=15;fontFamily=Lucida Console;" vertex="1" parent="1">
          <mxGeometry x="2320" y="-805" width="150" height="50" as="geometry" />
        </mxCell>
        <mxCell id="HGW-tUA6Mwg1vxqJW8UV-358" value="User Data Request" style="text;html=1;align=center;verticalAlign=middle;resizable=0;points=[];autosize=1;strokeColor=none;fillColor=none;fontSize=15;fontFamily=Lucida Console;" vertex="1" parent="1">
          <mxGeometry x="2490.000000000001" y="-810" width="180" height="30" as="geometry" />
        </mxCell>
        <mxCell id="HGW-tUA6Mwg1vxqJW8UV-359" style="edgeStyle=orthogonalEdgeStyle;rounded=0;orthogonalLoop=1;jettySize=auto;html=1;" edge="1" parent="1">
          <mxGeometry relative="1" as="geometry">
            <mxPoint x="2680" y="-780" as="targetPoint" />
            <mxPoint x="2480" y="-780" as="sourcePoint" />
            <Array as="points">
              <mxPoint x="2550" y="-779.5" />
            </Array>
          </mxGeometry>
        </mxCell>
        <mxCell id="HGW-tUA6Mwg1vxqJW8UV-360" value="" style="html=1;dashed=0;whiteSpace=wrap;shape=partialRectangle;right=0;fontSize=15;fontFamily=Lucida Console;" vertex="1" parent="1">
          <mxGeometry x="2977.5" y="-719" width="255" height="30" as="geometry" />
        </mxCell>
        <mxCell id="HGW-tUA6Mwg1vxqJW8UV-361" value="" style="endArrow=none;html=1;rounded=0;fontSize=15;startSize=8;endSize=8;curved=1;fontFamily=Lucida Console;" edge="1" parent="1">
          <mxGeometry width="50" height="50" relative="1" as="geometry">
            <mxPoint x="3032.3099999999995" y="-690" as="sourcePoint" />
            <mxPoint x="3032.3099999999995" y="-720" as="targetPoint" />
          </mxGeometry>
        </mxCell>
        <mxCell id="HGW-tUA6Mwg1vxqJW8UV-362" value="&lt;font&gt;DB24&amp;nbsp; Certificate Recipient&lt;/font&gt;" style="text;html=1;align=center;verticalAlign=middle;resizable=0;points=[];autosize=1;strokeColor=none;fillColor=none;fontSize=15;fontFamily=Lucida Console;" vertex="1" parent="1">
          <mxGeometry x="2970" y="-718" width="270" height="30" as="geometry" />
        </mxCell>
        <mxCell id="HGW-tUA6Mwg1vxqJW8UV-363" value="" style="html=1;dashed=0;whiteSpace=wrap;shape=partialRectangle;right=0;fontSize=15;fontFamily=Lucida Console;" vertex="1" parent="1">
          <mxGeometry x="2459.88" y="-705" width="185.12" height="30" as="geometry" />
        </mxCell>
        <mxCell id="HGW-tUA6Mwg1vxqJW8UV-364" value="" style="endArrow=none;html=1;rounded=0;fontSize=15;startSize=8;endSize=8;curved=1;fontFamily=Lucida Console;" edge="1" parent="1">
          <mxGeometry width="50" height="50" relative="1" as="geometry">
            <mxPoint x="2514.6899999999996" y="-676" as="sourcePoint" />
            <mxPoint x="2514.6899999999996" y="-706" as="targetPoint" />
          </mxGeometry>
        </mxCell>
        <mxCell id="HGW-tUA6Mwg1vxqJW8UV-365" style="edgeStyle=orthogonalEdgeStyle;rounded=0;orthogonalLoop=1;jettySize=auto;html=1;" edge="1" parent="1" source="HGW-tUA6Mwg1vxqJW8UV-366">
          <mxGeometry relative="1" as="geometry">
            <mxPoint x="2740.000000000001" y="-720" as="targetPoint" />
            <Array as="points">
              <mxPoint x="2550" y="-640" />
              <mxPoint x="2740" y="-640" />
            </Array>
          </mxGeometry>
        </mxCell>
        <mxCell id="HGW-tUA6Mwg1vxqJW8UV-366" value="&lt;font&gt;DB6&amp;nbsp; Gratis Logs&lt;/font&gt;" style="text;html=1;align=center;verticalAlign=middle;resizable=0;points=[];autosize=1;strokeColor=none;fillColor=none;fontSize=15;fontFamily=Lucida Console;" vertex="1" parent="1">
          <mxGeometry x="2465" y="-705" width="170" height="30" as="geometry" />
        </mxCell>
        <mxCell id="HGW-tUA6Mwg1vxqJW8UV-367" style="edgeStyle=orthogonalEdgeStyle;rounded=0;orthogonalLoop=1;jettySize=auto;html=1;exitX=0.5;exitY=1;exitDx=0;exitDy=0;" edge="1" parent="1" source="HGW-tUA6Mwg1vxqJW8UV-368">
          <mxGeometry relative="1" as="geometry">
            <mxPoint x="2770.000000000001" y="-720" as="targetPoint" />
            <Array as="points">
              <mxPoint x="2558" y="-550" />
              <mxPoint x="2770" y="-550" />
            </Array>
          </mxGeometry>
        </mxCell>
        <mxCell id="HGW-tUA6Mwg1vxqJW8UV-368" value="" style="html=1;dashed=0;whiteSpace=wrap;shape=partialRectangle;right=0;fontSize=15;fontFamily=Lucida Console;" vertex="1" parent="1">
          <mxGeometry x="2458" y="-618" width="200" height="30" as="geometry" />
        </mxCell>
        <mxCell id="HGW-tUA6Mwg1vxqJW8UV-369" value="" style="endArrow=none;html=1;rounded=0;fontSize=15;startSize=8;endSize=8;curved=1;fontFamily=Lucida Console;" edge="1" parent="1">
          <mxGeometry width="50" height="50" relative="1" as="geometry">
            <mxPoint x="2512.8099999999995" y="-589" as="sourcePoint" />
            <mxPoint x="2512.8099999999995" y="-619" as="targetPoint" />
          </mxGeometry>
        </mxCell>
        <mxCell id="HGW-tUA6Mwg1vxqJW8UV-370" value="&lt;font&gt;DB7&amp;nbsp; Fellowship Logs&lt;/font&gt;" style="text;html=1;align=center;verticalAlign=middle;resizable=0;points=[];autosize=1;strokeColor=none;fillColor=none;fontSize=15;fontFamily=Lucida Console;" vertex="1" parent="1">
          <mxGeometry x="2463" y="-618" width="200" height="30" as="geometry" />
        </mxCell>
        <mxCell id="HGW-tUA6Mwg1vxqJW8UV-371" value="Total Gratis hours" style="text;html=1;align=center;verticalAlign=middle;resizable=0;points=[];autosize=1;strokeColor=none;fillColor=none;fontSize=15;fontFamily=Lucida Console;" vertex="1" parent="1">
          <mxGeometry x="2549.880000000001" y="-665" width="190" height="30" as="geometry" />
        </mxCell>
        <mxCell id="HGW-tUA6Mwg1vxqJW8UV-372" value="Total Fellowship" style="text;html=1;align=center;verticalAlign=middle;resizable=0;points=[];autosize=1;strokeColor=none;fillColor=none;fontSize=15;fontFamily=Lucida Console;" vertex="1" parent="1">
          <mxGeometry x="2559.880000000001" y="-580" width="170" height="30" as="geometry" />
        </mxCell>
        <mxCell id="HGW-tUA6Mwg1vxqJW8UV-373" style="edgeStyle=orthogonalEdgeStyle;rounded=0;orthogonalLoop=1;jettySize=auto;html=1;" edge="1" parent="1">
          <mxGeometry relative="1" as="geometry">
            <mxPoint x="3060" y="-730" as="targetPoint" />
            <mxPoint x="2855" y="-795" as="sourcePoint" />
            <Array as="points">
              <mxPoint x="3060" y="-795" />
            </Array>
          </mxGeometry>
        </mxCell>
        <mxCell id="HGW-tUA6Mwg1vxqJW8UV-374" value="Scholars Received Certificate" style="text;html=1;align=center;verticalAlign=middle;resizable=0;points=[];autosize=1;strokeColor=none;fillColor=none;fontSize=15;fontFamily=Lucida Console;" vertex="1" parent="1">
          <mxGeometry x="2848.000000000001" y="-825" width="290" height="30" as="geometry" />
        </mxCell>
        <mxCell id="HGW-tUA6Mwg1vxqJW8UV-375" value="Scholar" style="html=1;dashed=0;whiteSpace=wrap;fontSize=15;fontFamily=Lucida Console;" vertex="1" parent="1">
          <mxGeometry x="3025.000000000001" y="-654" width="148.29" height="50" as="geometry" />
        </mxCell>
        <mxCell id="HGW-tUA6Mwg1vxqJW8UV-376" value="Generated Certificate" style="text;html=1;align=center;verticalAlign=middle;resizable=0;points=[];autosize=1;strokeColor=none;fillColor=none;fontSize=15;fontFamily=Lucida Console;" vertex="1" parent="1">
          <mxGeometry x="2804.000000000001" y="-654" width="210" height="30" as="geometry" />
        </mxCell>
        <mxCell id="HGW-tUA6Mwg1vxqJW8UV-377" value="18.0" style="swimlane;fontStyle=0;childLayout=stackLayout;horizontal=1;startSize=20;fillColor=#ffffff;horizontalStack=0;resizeParent=1;resizeParentMax=0;resizeLast=0;collapsible=0;marginBottom=0;swimlaneFillColor=#ffffff;rounded=1;fontSize=15;fontFamily=Lucida Console;" vertex="1" parent="1">
          <mxGeometry x="3783.5299999999997" y="-1387" width="158" height="80" as="geometry" />
        </mxCell>
        <mxCell id="HGW-tUA6Mwg1vxqJW8UV-378" value="End Semester" style="text;html=1;align=center;verticalAlign=middle;resizable=0;points=[];autosize=1;strokeColor=none;fillColor=none;perimeterSpacing=0;spacingTop=15;spacingBottom=15;fontFamily=Lucida Console;fontSize=15;" vertex="1" parent="HGW-tUA6Mwg1vxqJW8UV-377">
          <mxGeometry y="20" width="158" height="60" as="geometry" />
        </mxCell>
        <mxCell id="HGW-tUA6Mwg1vxqJW8UV-379" value="Scholar Admin" style="html=1;dashed=0;whiteSpace=wrap;fontSize=15;fontFamily=Lucida Console;" vertex="1" parent="1">
          <mxGeometry x="3436.53" y="-1370" width="150" height="50" as="geometry" />
        </mxCell>
        <mxCell id="HGW-tUA6Mwg1vxqJW8UV-380" style="edgeStyle=orthogonalEdgeStyle;rounded=0;orthogonalLoop=1;jettySize=auto;html=1;" edge="1" parent="1">
          <mxGeometry relative="1" as="geometry">
            <mxPoint x="3766.5299999999997" y="-1337.16" as="targetPoint" />
            <mxPoint x="3596.53" y="-1337.16" as="sourcePoint" />
            <Array as="points">
              <mxPoint x="3726.5299999999997" y="-1337.16" />
              <mxPoint x="3726.5299999999997" y="-1337.16" />
            </Array>
          </mxGeometry>
        </mxCell>
        <mxCell id="HGW-tUA6Mwg1vxqJW8UV-381" value="" style="html=1;dashed=0;whiteSpace=wrap;shape=partialRectangle;right=0;" vertex="1" parent="1">
          <mxGeometry x="3436.53" y="-1261" width="144.5" height="30" as="geometry" />
        </mxCell>
        <mxCell id="HGW-tUA6Mwg1vxqJW8UV-382" value="" style="endArrow=none;html=1;rounded=0;fontSize=12;startSize=8;endSize=8;curved=1;" edge="1" parent="1">
          <mxGeometry width="50" height="50" relative="1" as="geometry">
            <mxPoint x="3491.78" y="-1231" as="sourcePoint" />
            <mxPoint x="3491.78" y="-1261" as="targetPoint" />
          </mxGeometry>
        </mxCell>
        <mxCell id="HGW-tUA6Mwg1vxqJW8UV-383" value="&lt;font face=&quot;Lucida Console&quot;&gt;DB1&amp;nbsp; Semester&lt;/font&gt;" style="text;html=1;align=center;verticalAlign=middle;resizable=0;points=[];autosize=1;strokeColor=none;fillColor=none;fontSize=16;" vertex="1" parent="1">
          <mxGeometry x="3436.53" y="-1261" width="150" height="30" as="geometry" />
        </mxCell>
        <mxCell id="HGW-tUA6Mwg1vxqJW8UV-384" style="edgeStyle=orthogonalEdgeStyle;rounded=0;orthogonalLoop=1;jettySize=auto;html=1;" edge="1" parent="1">
          <mxGeometry relative="1" as="geometry">
            <mxPoint x="3826.5299999999997" y="-1296" as="targetPoint" />
            <mxPoint x="3591.53" y="-1245.96" as="sourcePoint" />
            <Array as="points">
              <mxPoint x="3721.5299999999997" y="-1245.96" />
              <mxPoint x="3721.5299999999997" y="-1245.96" />
            </Array>
          </mxGeometry>
        </mxCell>
        <mxCell id="HGW-tUA6Mwg1vxqJW8UV-385" value="Date End" style="text;html=1;align=center;verticalAlign=middle;resizable=0;points=[];autosize=1;strokeColor=none;fillColor=none;fontSize=15;fontFamily=Lucida Console;" vertex="1" parent="1">
          <mxGeometry x="3636.410000000001" y="-1272" width="100" height="30" as="geometry" />
        </mxCell>
        <mxCell id="HGW-tUA6Mwg1vxqJW8UV-386" value="End Semester" style="text;html=1;align=center;verticalAlign=middle;resizable=0;points=[];autosize=1;strokeColor=none;fillColor=none;fontSize=15;fontFamily=Lucida Console;" vertex="1" parent="1">
          <mxGeometry x="3619.530000000001" y="-1362" width="130" height="30" as="geometry" />
        </mxCell>
        <mxCell id="HGW-tUA6Mwg1vxqJW8UV-387" value="Scholar Admin" style="html=1;dashed=0;whiteSpace=wrap;fontSize=15;fontFamily=Lucida Console;" vertex="1" parent="1">
          <mxGeometry x="3448.53" y="-1592" width="150" height="50" as="geometry" />
        </mxCell>
        <mxCell id="HGW-tUA6Mwg1vxqJW8UV-388" value="Data Request" style="text;html=1;align=center;verticalAlign=middle;resizable=0;points=[];autosize=1;strokeColor=none;fillColor=none;fontSize=15;fontFamily=Lucida Console;" vertex="1" parent="1">
          <mxGeometry x="3618.530000000001" y="-1589.38" width="130" height="30" as="geometry" />
        </mxCell>
        <mxCell id="HGW-tUA6Mwg1vxqJW8UV-389" style="edgeStyle=orthogonalEdgeStyle;rounded=0;orthogonalLoop=1;jettySize=auto;html=1;" edge="1" parent="1">
          <mxGeometry relative="1" as="geometry">
            <mxPoint x="3773.53" y="-1557.38" as="targetPoint" />
            <mxPoint x="3603.53" y="-1557.38" as="sourcePoint" />
            <Array as="points">
              <mxPoint x="3733.53" y="-1557.38" />
              <mxPoint x="3733.53" y="-1557.38" />
            </Array>
          </mxGeometry>
        </mxCell>
        <mxCell id="HGW-tUA6Mwg1vxqJW8UV-390" value="17.0" style="swimlane;fontStyle=0;childLayout=stackLayout;horizontal=1;startSize=20;fillColor=#ffffff;horizontalStack=0;resizeParent=1;resizeParentMax=0;resizeLast=0;collapsible=0;marginBottom=0;swimlaneFillColor=#ffffff;rounded=1;fontSize=15;fontFamily=Lucida Console;" vertex="1" parent="1">
          <mxGeometry x="3783.53" y="-1606" width="158" height="80" as="geometry" />
        </mxCell>
        <mxCell id="HGW-tUA6Mwg1vxqJW8UV-391" value="Create Report" style="text;html=1;align=center;verticalAlign=middle;resizable=0;points=[];autosize=1;strokeColor=none;fillColor=none;perimeterSpacing=0;spacingTop=15;spacingBottom=15;fontFamily=Lucida Console;fontSize=15;" vertex="1" parent="HGW-tUA6Mwg1vxqJW8UV-390">
          <mxGeometry y="20" width="158" height="60" as="geometry" />
        </mxCell>
        <mxCell id="HGW-tUA6Mwg1vxqJW8UV-392" value="" style="html=1;dashed=0;whiteSpace=wrap;shape=partialRectangle;right=0;fontSize=15;fontFamily=Lucida Console;" vertex="1" parent="1">
          <mxGeometry x="3536.53" y="-1475" width="152" height="30" as="geometry" />
        </mxCell>
        <mxCell id="HGW-tUA6Mwg1vxqJW8UV-393" value="" style="endArrow=none;html=1;rounded=0;fontSize=15;startSize=8;endSize=8;curved=1;fontFamily=Lucida Console;" edge="1" parent="1">
          <mxGeometry width="50" height="50" relative="1" as="geometry">
            <mxPoint x="3591.3399999999997" y="-1446" as="sourcePoint" />
            <mxPoint x="3591.3399999999997" y="-1476" as="targetPoint" />
          </mxGeometry>
        </mxCell>
        <mxCell id="HGW-tUA6Mwg1vxqJW8UV-394" value="&lt;font&gt;DB ?&amp;nbsp;&lt;/font&gt;" style="text;html=1;align=center;verticalAlign=middle;resizable=0;points=[];autosize=1;strokeColor=none;fillColor=none;fontSize=15;fontFamily=Lucida Console;" vertex="1" parent="1">
          <mxGeometry x="3536.53" y="-1475" width="70" height="30" as="geometry" />
        </mxCell>
        <mxCell id="HGW-tUA6Mwg1vxqJW8UV-395" style="edgeStyle=orthogonalEdgeStyle;rounded=0;orthogonalLoop=1;jettySize=auto;html=1;" edge="1" parent="1">
          <mxGeometry relative="1" as="geometry">
            <mxPoint x="3848.53" y="-1516" as="targetPoint" />
            <mxPoint x="3693.53" y="-1458.5" as="sourcePoint" />
          </mxGeometry>
        </mxCell>
        <mxCell id="HGW-tUA6Mwg1vxqJW8UV-396" value="Data Requested" style="text;html=1;align=center;verticalAlign=middle;resizable=0;points=[];autosize=1;strokeColor=none;fillColor=none;fontSize=15;fontFamily=Lucida Console;" vertex="1" parent="1">
          <mxGeometry x="3693.530000000001" y="-1486" width="150" height="30" as="geometry" />
        </mxCell>
        <mxCell id="HGW-tUA6Mwg1vxqJW8UV-397" value="Reports" style="text;html=1;align=center;verticalAlign=middle;resizable=0;points=[];autosize=1;strokeColor=none;fillColor=none;fontSize=15;fontFamily=Lucida Console;" vertex="1" parent="1">
          <mxGeometry x="3983.530000000001" y="-1592" width="90" height="30" as="geometry" />
        </mxCell>
        <mxCell id="HGW-tUA6Mwg1vxqJW8UV-398" value="" style="html=1;dashed=0;whiteSpace=wrap;shape=partialRectangle;right=0;fontSize=15;fontFamily=Lucida Console;direction=east;" vertex="1" parent="1">
          <mxGeometry x="4133.64" y="-1575" width="136.31" height="30" as="geometry" />
        </mxCell>
        <mxCell id="HGW-tUA6Mwg1vxqJW8UV-399" value="" style="endArrow=none;html=1;rounded=0;fontSize=15;startSize=8;endSize=8;curved=1;fontFamily=Lucida Console;" edge="1" parent="1">
          <mxGeometry width="50" height="50" relative="1" as="geometry">
            <mxPoint x="4180" y="-1545" as="sourcePoint" />
            <mxPoint x="4180" y="-1575" as="targetPoint" />
          </mxGeometry>
        </mxCell>
        <mxCell id="HGW-tUA6Mwg1vxqJW8UV-400" value="&lt;font&gt;DB23&amp;nbsp; Reports&lt;/font&gt;" style="text;html=1;align=center;verticalAlign=middle;resizable=0;points=[];autosize=1;strokeColor=none;fillColor=none;fontSize=15;fontFamily=Lucida Console;" vertex="1" parent="1">
          <mxGeometry x="4129.950000000001" y="-1575" width="140" height="30" as="geometry" />
        </mxCell>
        <mxCell id="HGW-tUA6Mwg1vxqJW8UV-401" style="edgeStyle=orthogonalEdgeStyle;rounded=0;orthogonalLoop=1;jettySize=auto;html=1;" edge="1" parent="1">
          <mxGeometry relative="1" as="geometry">
            <mxPoint x="4123.030000000001" y="-1559.3400000000001" as="targetPoint" />
            <mxPoint x="3953.03" y="-1559.3400000000001" as="sourcePoint" />
            <Array as="points">
              <mxPoint x="4083.03" y="-1559.3400000000001" />
              <mxPoint x="4083.03" y="-1559.3400000000001" />
            </Array>
          </mxGeometry>
        </mxCell>
      </root>
    </mxGraphModel>
  </diagram>
</mxfile>
